<svg role="img" width="247" height="52" viewBox="0 0 247 52" fill="none" xmlns="http://www.w3.org/2000/svg">
  <title>Kofinanziert von der Europäischen Union</title>
  <path d="M76.2766 0H0V51.8004H76.2766V0Z" fill="white"/>
  <path d="M74.8117 1.41943H1.46497V50.3172H74.8117V1.41943Z" fill="#134394"/>
  <path d="M36.5778 12.0743L38.1246 10.946L39.6714 12.0743L39.08 10.2454L40.6541 9.11711H38.716L38.1246 7.27002L37.5332 9.11711H35.5951L37.1692 10.2454L36.5778 12.0743Z" fill="#FFE900"/>
  <path d="M28.5707 14.2308L30.1175 13.0935L31.6643 14.2308L31.0729 12.4019L32.647 11.2737H30.709L30.1175 9.41748L29.5261 11.2737H27.588L29.153 12.4019L28.5707 14.2308Z" fill="#FFE900"/>
  <path d="M24.2578 15.2954L23.6664 17.1425H21.7283L23.2933 18.2708L22.711 20.0997L24.2578 18.9714L25.8046 20.0997L25.2132 18.2708L26.7873 17.1425H24.8492L24.2578 15.2954Z" fill="#FFE900"/>
  <path d="M22.1014 26.9694L23.6482 28.0977L23.0659 26.2688L24.6309 25.1405H22.7019L22.1014 23.2935L21.51 25.1496L19.5719 25.1405L21.146 26.2688L20.5546 28.0977L22.1014 26.9694Z" fill="#FFE900"/>
  <path d="M24.8492 33.1657L24.2578 31.3186L23.6664 33.1657H21.7283L23.2933 34.294L22.711 36.1229L24.2578 34.9946L25.8046 36.1229L25.2132 34.294L26.7873 33.1657H24.8492Z" fill="#FFE900"/>
  <path d="M30.7181 39.0346L30.1267 37.1875L29.5352 39.0437L27.5972 39.0346L29.1713 40.172L28.5799 41.9918L30.1267 40.8635L31.6735 41.9918L31.0912 40.172L32.6562 39.0346H30.7181Z" fill="#FFE900"/>
  <path d="M38.716 41.1637L38.1246 39.3167L37.5332 41.1637H35.5951L37.1692 42.292L36.5778 44.1209L38.1246 42.9926L39.6714 44.1209L39.0891 42.292L40.6541 41.1637H38.716Z" fill="#FFE900"/>
  <path d="M46.7141 39.0346L46.1226 37.1875L45.5312 39.0437L43.5931 39.0346L45.1673 40.172L44.5758 41.9918L46.1226 40.8635L47.6786 41.9918L47.0871 40.172L48.6522 39.0346H46.7141Z" fill="#FFE900"/>
  <path d="M52.592 33.1657L52.0006 31.3186L51.4001 33.1657H49.4711L51.0361 34.294L50.4538 36.1229L52.0006 34.9946L53.5474 36.1229L52.956 34.294L54.5301 33.1657H52.592Z" fill="#FFE900"/>
  <path d="M56.6592 25.1223H54.7211L54.1206 23.2661L53.5291 25.1223H51.5911L53.1652 26.2506L52.5738 28.0795L54.1206 26.9421L55.6674 28.0795L55.0851 26.2506L56.6592 25.1223Z" fill="#FFE900"/>
  <path d="M50.4538 20.0723L52.0006 18.944L53.5474 20.0723L52.956 18.2525L54.5301 17.1243H52.592L52.0006 15.2681L51.4001 17.1243H49.4711L51.0361 18.2525L50.4538 20.0723Z" fill="#FFE900"/>
  <path d="M46.1499 9.41748L45.5584 11.2737H43.6204L45.1854 12.4019L44.6031 14.2308L46.1499 13.0935L47.6967 14.2308L47.1053 12.4019L48.6794 11.2737H46.7413L46.1499 9.41748Z" fill="#FFE900"/>
  <path d="M85.412 19.9996V7.96167H87.8414V13.3028L92.7458 7.96167H96.0123L91.481 12.6476L96.258 19.9905H93.1097L89.7977 14.34L87.8232 16.3509V19.9905H85.3938L85.412 19.9996Z" fill="#134394"/>
  <path d="M96.9677 15.5136C96.9677 14.7493 97.1587 14.0032 97.5318 13.2935C97.9048 12.5747 98.4417 12.0287 99.1332 11.6557C99.8247 11.2735 100.598 11.0916 101.453 11.0916C102.773 11.0916 103.856 11.5192 104.693 12.3745C105.539 13.2298 105.957 14.3126 105.957 15.6228C105.957 16.9331 105.53 18.0341 104.684 18.8985C103.837 19.7629 102.764 20.1996 101.472 20.1996C100.671 20.1996 99.9066 20.0176 99.1878 19.6537C98.469 19.2897 97.9139 18.762 97.5318 18.0614C97.1496 17.3607 96.9677 16.5145 96.9677 15.5136ZM99.3334 15.641C99.3334 16.5054 99.5427 17.1697 99.9521 17.6246C100.362 18.0887 100.871 18.3161 101.472 18.3161C102.072 18.3161 102.582 18.0887 102.982 17.6246C103.382 17.1606 103.592 16.4963 103.592 15.6228C103.592 14.7493 103.392 14.1124 102.982 13.6484C102.573 13.1843 102.072 12.9568 101.472 12.9568C100.871 12.9568 100.362 13.1843 99.9521 13.6484C99.5427 14.1124 99.3334 14.7675 99.3334 15.6319V15.641Z" fill="#134394"/>
  <path d="M106.822 11.2827H108.105V10.6276C108.105 9.89057 108.187 9.34463 108.341 8.98977C108.496 8.62581 108.787 8.33464 109.206 8.10717C109.624 7.8797 110.152 7.77051 110.798 7.77051C111.444 7.77051 112.099 7.8706 112.727 8.06167L112.418 9.67219C112.054 9.5812 111.699 9.54481 111.362 9.54481C111.026 9.54481 110.789 9.6267 110.643 9.78138C110.498 9.93606 110.425 10.2363 110.425 10.6822V11.3009H112.145V13.1116H110.425V20.0177H108.123V13.1116H106.84V11.3009L106.822 11.2827ZM113.3 10.0998V7.96159H115.602V10.0998H113.3ZM113.3 19.9995V11.2827H115.602V19.9995H113.3Z" fill="#134394"/>
  <path d="M125.966 19.9994H123.664V15.55C123.664 14.6129 123.619 14.0032 123.518 13.7212C123.418 13.4391 123.264 13.2298 123.036 13.0751C122.818 12.9204 122.545 12.8477 122.236 12.8477C121.835 12.8477 121.48 12.9568 121.162 13.1752C120.843 13.3936 120.625 13.6848 120.507 14.0487C120.388 14.4127 120.334 15.0769 120.334 16.0505V19.9994H118.023V11.2826H120.161V12.5656C120.925 11.5829 121.881 11.0916 123.036 11.0916C123.546 11.0916 124.01 11.1825 124.428 11.3645C124.847 11.5465 125.165 11.7831 125.384 12.0651C125.602 12.3472 125.748 12.6748 125.839 13.0296C125.921 13.3936 125.966 13.9122 125.966 14.5765V19.9903V19.9994Z" fill="#134394"/>
  <path d="M130.033 13.9396L127.941 13.5665C128.177 12.7203 128.578 12.1016 129.16 11.6921C129.733 11.2918 130.588 11.0825 131.717 11.0825C132.745 11.0825 133.509 11.2008 134.019 11.4465C134.519 11.6921 134.874 12.0015 135.083 12.3746C135.293 12.7476 135.393 13.4392 135.393 14.44L135.365 17.1333C135.365 17.8976 135.402 18.4618 135.475 18.8257C135.547 19.1897 135.684 19.5809 135.893 19.9995H133.609C133.546 19.8448 133.473 19.6173 133.391 19.3171C133.354 19.1806 133.327 19.0896 133.309 19.0441C132.918 19.4263 132.49 19.7174 132.044 19.9085C131.598 20.0996 131.116 20.1997 130.607 20.1997C129.706 20.1997 129.005 19.954 128.487 19.4718C127.968 18.9804 127.713 18.3708 127.713 17.6247C127.713 17.1333 127.831 16.6966 128.068 16.3053C128.305 15.9232 128.632 15.6229 129.06 15.4227C129.487 15.2134 130.097 15.0406 130.898 14.8859C131.971 14.6857 132.727 14.4946 133.136 14.3217V14.0943C133.136 13.6484 133.027 13.3391 132.809 13.148C132.59 12.9569 132.181 12.8659 131.571 12.8659C131.162 12.8659 130.843 12.9478 130.607 13.1116C130.379 13.2754 130.188 13.5574 130.052 13.9578L130.033 13.9396ZM133.118 15.814C132.827 15.9141 132.354 16.0324 131.717 16.1688C131.08 16.3053 130.661 16.4418 130.461 16.5692C130.161 16.7785 130.006 17.0514 130.006 17.379C130.006 17.7066 130.124 17.9795 130.37 18.2161C130.607 18.4527 130.916 18.571 131.289 18.571C131.708 18.571 132.099 18.4345 132.481 18.1615C132.763 17.9522 132.945 17.6975 133.027 17.3972C133.091 17.197 133.118 16.824 133.118 16.2689V15.8049V15.814Z" fill="#134394"/>
  <path d="M145.593 19.9994H143.291V15.55C143.291 14.6129 143.245 14.0032 143.145 13.7212C143.045 13.4391 142.89 13.2298 142.663 13.0751C142.444 12.9204 142.171 12.8477 141.862 12.8477C141.462 12.8477 141.107 12.9568 140.788 13.1752C140.47 13.3936 140.251 13.6848 140.133 14.0487C140.015 14.4127 139.96 15.0769 139.96 16.0505V19.9994H137.649V11.2826H139.787V12.5656C140.552 11.5829 141.507 11.0916 142.663 11.0916C143.172 11.0916 143.636 11.1825 144.055 11.3645C144.473 11.5465 144.792 11.7831 145.01 12.0651C145.229 12.3472 145.374 12.6748 145.465 13.0296C145.547 13.3936 145.593 13.9122 145.593 14.5765V19.9903V19.9994Z" fill="#134394"/>
  <path d="M147.003 19.9995V18.1979L150.269 14.4491C150.806 13.8395 151.207 13.4027 151.461 13.1479C151.198 13.1661 150.843 13.1752 150.406 13.1843L147.33 13.2025V11.2917H154.537V12.9296L151.207 16.7693L150.033 18.0432C150.67 18.0068 151.07 17.9886 151.225 17.9886H154.792V20.0177H147.012L147.003 19.9995Z" fill="#134394"/>
  <path d="M156.329 10.0999V7.96167H158.631V10.0999H156.329ZM156.329 19.9996V11.2828H158.631V19.9996H156.329Z" fill="#134394"/>
  <path d="M166.056 17.2243L168.358 17.6064C168.067 18.4526 167.594 19.0895 166.957 19.5354C166.32 19.9721 165.519 20.1996 164.564 20.1996C163.044 20.1996 161.925 19.7083 161.197 18.7165C160.624 17.9249 160.333 16.924 160.333 15.7138C160.333 14.2671 160.715 13.1388 161.47 12.3199C162.225 11.501 163.181 11.0916 164.336 11.0916C165.638 11.0916 166.657 11.5192 167.403 12.3745C168.149 13.2298 168.513 14.5401 168.476 16.3144H162.699C162.717 16.9968 162.899 17.5336 163.254 17.9067C163.609 18.2888 164.054 18.4799 164.582 18.4799C164.946 18.4799 165.246 18.3798 165.492 18.1887C165.738 17.9977 165.92 17.6701 166.047 17.2334L166.056 17.2243ZM166.184 14.8949C166.165 14.2307 165.992 13.7212 165.665 13.3754C165.337 13.0296 164.937 12.8568 164.464 12.8568C163.963 12.8568 163.545 13.0387 163.217 13.4027C162.89 13.7666 162.726 14.2671 162.735 14.8949H166.184Z" fill="#134394"/>
  <path d="M172.562 19.9995H170.26V11.2827H172.398V12.5202C172.762 11.9378 173.099 11.5466 173.39 11.3646C173.681 11.1826 174.018 11.0825 174.391 11.0825C174.918 11.0825 175.419 11.2281 175.91 11.5193L175.201 13.5301C174.809 13.2754 174.454 13.1571 174.118 13.1571C173.781 13.1571 173.517 13.2481 173.299 13.421C173.071 13.6029 172.898 13.9214 172.771 14.3854C172.644 14.8495 172.58 15.8231 172.58 17.3062V19.9995H172.562Z" fill="#134394"/>
  <path d="M180.897 11.2827V13.1207H179.322V16.6329C179.322 17.3426 179.341 17.7612 179.368 17.8795C179.395 17.9978 179.468 18.0978 179.577 18.1706C179.686 18.2434 179.814 18.2889 179.968 18.2889C180.178 18.2889 180.487 18.2161 180.897 18.0705L181.097 19.863C180.56 20.0905 179.95 20.2088 179.277 20.2088C178.858 20.2088 178.485 20.136 178.149 19.9995C177.812 19.863 177.566 19.6811 177.412 19.4536C177.257 19.2352 177.148 18.9349 177.084 18.5528C177.039 18.2889 177.011 17.743 177.011 16.9241V13.1207H175.956V11.2827H177.011V9.55392L179.322 8.20728V11.2827H180.897Z" fill="#134394"/>
  <path d="M189.559 19.9995L186.047 11.2827H188.467L190.105 15.7321L190.578 17.2152C190.705 16.8422 190.787 16.5874 190.814 16.4691C190.887 16.2235 190.969 15.9778 191.06 15.7321L192.716 11.2827H195.091L191.624 19.9995H189.55H189.559Z" fill="#134394"/>
  <path d="M195.983 15.5136C195.983 14.7493 196.174 14.0032 196.547 13.2935C196.92 12.5747 197.457 12.0287 198.148 11.6557C198.84 11.2735 199.613 11.0916 200.468 11.0916C201.788 11.0916 202.87 11.5192 203.708 12.3745C204.554 13.2298 204.972 14.3126 204.972 15.6228C204.972 16.9331 204.545 18.0341 203.698 18.8985C202.852 19.7629 201.779 20.1996 200.487 20.1996C199.686 20.1996 198.922 20.0176 198.203 19.6537C197.484 19.2897 196.929 18.762 196.547 18.0614C196.165 17.3607 195.983 16.5145 195.983 15.5136ZM198.348 15.641C198.348 16.5054 198.558 17.1697 198.967 17.6246C199.376 18.0887 199.886 18.3161 200.487 18.3161C201.087 18.3161 201.597 18.0887 201.997 17.6246C202.397 17.1606 202.607 16.4963 202.607 15.6228C202.607 14.7493 202.406 14.1124 201.997 13.6484C201.588 13.1843 201.087 12.9568 200.487 12.9568C199.886 12.9568 199.376 13.1843 198.967 13.6484C198.558 14.1124 198.348 14.7675 198.348 15.6319V15.641Z" fill="#134394"/>
  <path d="M214.708 19.9994H212.406V15.55C212.406 14.6129 212.361 14.0032 212.261 13.7212C212.161 13.4391 212.006 13.2298 211.778 13.0751C211.56 12.9204 211.287 12.8477 210.978 12.8477C210.577 12.8477 210.222 12.9568 209.904 13.1752C209.586 13.3936 209.367 13.6848 209.249 14.0487C209.131 14.4127 209.076 15.0769 209.076 16.0505V19.9994H206.765V11.2826H208.903V12.5656C209.667 11.5829 210.623 11.0916 211.778 11.0916C212.288 11.0916 212.752 11.1825 213.171 11.3645C213.589 11.5465 213.908 11.7831 214.126 12.0651C214.344 12.3472 214.49 12.6748 214.581 13.0296C214.663 13.3936 214.708 13.9122 214.708 14.5765V19.9903V19.9994Z" fill="#134394"/>
  <path d="M229.712 19.9995H227.574V18.7166C227.219 19.217 226.801 19.581 226.319 19.8266C225.836 20.0723 225.345 20.1906 224.854 20.1906C223.853 20.1906 222.997 19.7903 222.279 18.9804C221.569 18.1706 221.205 17.0515 221.205 15.6047C221.205 14.158 221.551 13.0024 222.251 12.2381C222.943 11.4738 223.825 11.0825 224.89 11.0825C225.864 11.0825 226.71 11.492 227.42 12.3018V7.9707H229.722V20.0086L229.712 19.9995ZM223.552 15.45C223.552 16.3781 223.68 17.0515 223.935 17.47C224.308 18.0705 224.826 18.3708 225.491 18.3708C226.018 18.3708 226.473 18.1433 226.846 17.6975C227.219 17.2425 227.401 16.5692 227.401 15.6775C227.401 14.6766 227.219 13.9578 226.855 13.512C226.491 13.0661 226.027 12.8477 225.472 12.8477C224.917 12.8477 224.462 13.0661 224.098 13.5029C223.725 13.9396 223.543 14.5856 223.543 15.45H223.552Z" fill="#134394"/>
  <path d="M237.037 17.2243L239.339 17.6064C239.048 18.4526 238.575 19.0895 237.938 19.5354C237.301 19.9721 236.5 20.1996 235.545 20.1996C234.025 20.1996 232.906 19.7083 232.178 18.7165C231.605 17.9249 231.314 16.924 231.314 15.7138C231.314 14.2671 231.696 13.1388 232.451 12.3199C233.206 11.501 234.162 11.0916 235.317 11.0916C236.619 11.0916 237.638 11.5192 238.384 12.3745C239.13 13.2298 239.494 14.5401 239.457 16.3144H233.68C233.698 16.9968 233.88 17.5336 234.235 17.9067C234.589 18.2888 235.035 18.4799 235.563 18.4799C235.927 18.4799 236.227 18.3798 236.473 18.1887C236.719 17.9977 236.901 17.6701 237.028 17.2334L237.037 17.2243ZM237.164 14.8949C237.146 14.2307 236.973 13.7212 236.646 13.3754C236.318 13.0296 235.918 12.8568 235.445 12.8568C234.944 12.8568 234.526 13.0387 234.198 13.4027C233.871 13.7666 233.707 14.2671 233.716 14.8949H237.164Z" fill="#134394"/>
  <path d="M243.543 19.9995H241.241V11.2827H243.379V12.5202C243.743 11.9378 244.08 11.5466 244.371 11.3646C244.662 11.1826 244.999 11.0825 245.372 11.0825C245.9 11.0825 246.4 11.2281 246.891 11.5193L246.182 13.5301C245.79 13.2754 245.435 13.1571 245.099 13.1571C244.762 13.1571 244.498 13.2481 244.28 13.421C244.052 13.6029 243.88 13.9214 243.752 14.3854C243.625 14.8495 243.561 15.8231 243.561 17.3062V19.9995H243.543Z" fill="#134394"/>
  <path d="M85.3756 40.172V28.134H94.3017V30.1722H87.805V32.8382H93.8467V34.8673H87.805V38.1429H94.5292V40.172H85.3756Z" fill="#134394"/>
  <path d="M102.318 40.1718V38.8707C101.999 39.3347 101.581 39.6987 101.062 39.9716C100.544 40.2355 99.9976 40.372 99.4244 40.372C98.8511 40.372 98.3143 40.2446 97.8502 39.9898C97.3862 39.7351 97.0495 39.3711 96.8403 38.9071C96.631 38.443 96.5309 37.797 96.5309 36.9781V31.4641H98.842V35.4677C98.842 36.696 98.8875 37.4421 98.9694 37.7242C99.0513 37.9972 99.206 38.2155 99.4335 38.3793C99.6609 38.5431 99.943 38.625 100.289 38.625C100.68 38.625 101.035 38.5158 101.344 38.2974C101.654 38.0791 101.872 37.8152 101.981 37.4967C102.099 37.1783 102.154 36.3957 102.154 35.1492V31.4732H104.465V40.19H102.327L102.318 40.1718Z" fill="#134394"/>
  <path d="M109.051 40.1719H106.749V31.4551H108.887V32.6925C109.251 32.1102 109.588 31.7189 109.879 31.537C110.17 31.355 110.507 31.2549 110.88 31.2549C111.408 31.2549 111.908 31.4005 112.399 31.6916L111.69 33.7025C111.299 33.4477 110.944 33.3294 110.607 33.3294C110.27 33.3294 110.006 33.4204 109.788 33.5933C109.561 33.7753 109.388 34.0938 109.26 34.5578C109.133 35.0219 109.069 35.9954 109.069 37.4786V40.1719H109.051Z" fill="#134394"/>
  <path d="M112.854 35.686C112.854 34.9217 113.046 34.1756 113.419 33.4659C113.792 32.747 114.329 32.2011 115.02 31.8281C115.712 31.4459 116.485 31.2639 117.34 31.2639C118.66 31.2639 119.742 31.6916 120.58 32.5469C121.426 33.4022 121.844 34.4849 121.844 35.7952C121.844 37.1054 121.417 38.2064 120.57 39.0708C119.724 39.9352 118.651 40.372 117.358 40.372C116.558 40.372 115.793 40.19 115.075 39.826C114.356 39.4621 113.801 38.9343 113.419 38.2337C113.036 37.5331 112.854 36.6869 112.854 35.686ZM115.22 35.8134C115.22 36.6778 115.429 37.342 115.839 37.797C116.248 38.261 116.758 38.4885 117.358 38.4885C117.959 38.4885 118.469 38.261 118.869 37.797C119.269 37.3329 119.479 36.6687 119.479 35.7952C119.479 34.9217 119.278 34.2848 118.869 33.8207C118.459 33.3567 117.959 33.1292 117.358 33.1292C116.758 33.1292 116.248 33.3567 115.839 33.8207C115.429 34.2848 115.22 34.9399 115.22 35.8043V35.8134Z" fill="#134394"/>
  <path d="M123.591 31.455H125.739V32.7379C126.021 32.3012 126.394 31.9463 126.876 31.6734C127.349 31.4004 127.877 31.2639 128.459 31.2639C129.469 31.2639 130.334 31.6643 131.034 32.4559C131.744 33.2475 132.09 34.3576 132.09 35.7679C132.09 37.1782 131.735 38.352 131.025 39.1618C130.315 39.9716 129.451 40.372 128.441 40.372C127.959 40.372 127.522 40.2719 127.131 40.0808C126.74 39.8897 126.33 39.5622 125.893 39.0981V43.4929H123.591V31.455ZM125.875 35.6678C125.875 36.6505 126.066 37.3693 126.457 37.8425C126.849 38.3065 127.322 38.5431 127.877 38.5431C128.432 38.5431 128.86 38.3247 129.214 37.8971C129.569 37.4694 129.751 36.7597 129.751 35.7861C129.751 34.8762 129.569 34.1938 129.205 33.7479C128.841 33.3021 128.386 33.0837 127.841 33.0837C127.295 33.0837 126.812 33.3021 126.439 33.7388C126.066 34.1756 125.884 34.8216 125.884 35.6678H125.875Z" fill="#134394"/>
  <path d="M135.647 34.112L133.555 33.739C133.791 32.8928 134.192 32.274 134.774 31.8646C135.347 31.4642 136.202 31.255 137.331 31.255C138.359 31.255 139.123 31.3732 139.633 31.6189C140.133 31.8646 140.488 32.174 140.697 32.547C140.907 32.9201 141.007 33.6116 141.007 34.6125L140.979 37.3058C140.979 38.0701 141.016 38.6342 141.089 38.9982C141.161 39.3621 141.298 39.7534 141.507 40.1719H139.223C139.16 40.0173 139.087 39.7898 139.005 39.4895C138.969 39.353 138.941 39.262 138.923 39.2165C138.532 39.5987 138.104 39.8899 137.658 40.0809C137.212 40.272 136.73 40.3721 136.221 40.3721C135.32 40.3721 134.619 40.1264 134.101 39.6442C133.582 39.1529 133.327 38.5432 133.327 37.7971C133.327 37.3058 133.445 36.869 133.682 36.4778C133.919 36.0956 134.246 35.7953 134.674 35.5952C135.101 35.3859 135.711 35.213 136.512 35.0583C137.585 34.8581 138.341 34.6671 138.75 34.4942V34.2667C138.75 33.8209 138.641 33.5115 138.423 33.3204C138.204 33.1293 137.795 33.0384 137.185 33.0384C136.776 33.0384 136.457 33.1202 136.221 33.284C135.993 33.4478 135.802 33.7299 135.666 34.1302L135.647 34.112ZM134.656 29.9083V27.9338H136.63V29.9083H134.656ZM138.732 35.9864C138.441 36.0865 137.968 36.2048 137.331 36.3413C136.694 36.4778 136.275 36.6142 136.075 36.7416C135.775 36.9509 135.62 37.2239 135.62 37.5514C135.62 37.879 135.738 38.152 135.984 38.3885C136.221 38.6251 136.53 38.7434 136.903 38.7434C137.322 38.7434 137.713 38.6069 138.095 38.334C138.377 38.1247 138.559 37.8699 138.641 37.5696C138.705 37.3695 138.732 36.9964 138.732 36.4414V35.9773V35.9864ZM138.186 29.9083V27.9338H140.17V29.9083H138.186Z" fill="#134394"/>
  <path d="M143.272 30.2723V28.134H145.574V30.2723H143.272ZM143.272 40.172V31.4552H145.574V40.172H143.272Z" fill="#134394"/>
  <path d="M147.13 37.6879L149.441 37.3331C149.542 37.7789 149.742 38.1247 150.042 38.3521C150.342 38.5887 150.761 38.6979 151.307 38.6979C151.907 38.6979 152.353 38.5887 152.653 38.3703C152.854 38.2157 152.954 38.0155 152.954 37.7516C152.954 37.5787 152.899 37.4331 152.79 37.3149C152.672 37.2057 152.417 37.1056 152.016 37.0146C150.16 36.6051 148.977 36.2321 148.477 35.8863C147.785 35.4132 147.44 34.758 147.44 33.9209C147.44 33.1657 147.74 32.5288 148.331 32.0193C148.932 31.5006 149.851 31.2458 151.107 31.2458C152.362 31.2458 153.19 31.4369 153.763 31.8282C154.346 32.2194 154.746 32.7927 154.965 33.5479L152.79 33.9482C152.699 33.6116 152.517 33.3477 152.262 33.1657C151.998 32.9838 151.634 32.8928 151.152 32.8928C150.542 32.8928 150.106 32.9747 149.851 33.1475C149.678 33.2658 149.587 33.4205 149.587 33.6116C149.587 33.7754 149.66 33.9118 149.815 34.0301C150.024 34.1848 150.743 34.4032 151.971 34.6762C153.199 34.9491 154.055 35.2949 154.546 35.7043C155.028 36.1138 155.265 36.687 155.265 37.424C155.265 38.2248 154.928 38.9072 154.264 39.4804C153.6 40.0536 152.608 40.3448 151.298 40.3448C150.115 40.3448 149.168 40.1082 148.477 39.626C147.785 39.1437 147.33 38.4886 147.121 37.6606L147.13 37.6879Z" fill="#134394"/>
  <path d="M164.891 34.0301L162.617 34.4396C162.544 33.9846 162.362 33.6389 162.098 33.4114C161.825 33.1839 161.479 33.0656 161.043 33.0656C160.469 33.0656 160.005 33.2658 159.669 33.6571C159.332 34.0483 159.159 34.7217 159.159 35.6497C159.159 36.687 159.332 37.4149 159.678 37.8426C160.024 38.2702 160.488 38.4795 161.079 38.4795C161.516 38.4795 161.871 38.3521 162.153 38.1065C162.435 37.8608 162.626 37.4331 162.744 36.8235L165.01 37.2057C164.773 38.2429 164.318 39.0346 163.654 39.5623C162.99 40.09 162.089 40.3539 160.97 40.3539C159.696 40.3539 158.677 39.9536 157.922 39.1437C157.166 38.343 156.784 37.2239 156.784 35.8044C156.784 34.385 157.166 33.2476 157.922 32.4469C158.686 31.6462 159.714 31.2458 161.006 31.2458C162.071 31.2458 162.908 31.4733 163.536 31.9283C164.164 32.3832 164.609 33.0838 164.882 34.021L164.891 34.0301Z" fill="#134394"/>
  <path d="M168.941 28.1341V32.5562C169.687 31.6827 170.578 31.255 171.607 31.255C172.134 31.255 172.616 31.3551 173.044 31.5462C173.472 31.7373 173.79 31.9921 174.009 32.3014C174.227 32.6108 174.373 32.9474 174.454 33.3205C174.536 33.6936 174.573 34.2668 174.573 35.0493V40.1629H172.271V35.5589C172.271 34.649 172.225 34.0666 172.143 33.8209C172.052 33.5753 171.898 33.3751 171.679 33.2295C171.461 33.0839 171.179 33.0111 170.842 33.0111C170.46 33.0111 170.114 33.1021 169.814 33.2932C169.514 33.4752 169.295 33.7573 169.15 34.1303C169.013 34.5034 168.941 35.0584 168.941 35.7954V40.1629H166.629V28.125H168.941V28.1341Z" fill="#134394"/>
  <path d="M181.961 37.3966L184.263 37.7788C183.972 38.625 183.499 39.2619 182.862 39.7078C182.225 40.1445 181.424 40.372 180.469 40.372C178.949 40.372 177.83 39.8806 177.102 38.8888C176.529 38.0972 176.238 37.0963 176.238 35.8862C176.238 34.4395 176.62 33.3112 177.375 32.4923C178.13 31.6734 179.086 31.2639 180.241 31.2639C181.542 31.2639 182.562 31.6916 183.308 32.5469C184.054 33.4022 184.418 34.7124 184.381 36.4867H178.604C178.622 37.1691 178.804 37.706 179.159 38.079C179.513 38.4612 179.959 38.6523 180.487 38.6523C180.851 38.6523 181.151 38.5522 181.397 38.3611C181.643 38.17 181.825 37.8425 181.952 37.4057L181.961 37.3966ZM182.088 35.0673C182.07 34.4031 181.897 33.8935 181.57 33.5478C181.242 33.202 180.842 33.0291 180.369 33.0291C179.868 33.0291 179.45 33.2111 179.122 33.5751C178.795 33.939 178.631 34.4395 178.64 35.0673H182.088Z" fill="#134394"/>
  <path d="M194.19 40.1718H191.888V35.7224C191.888 34.7852 191.843 34.1756 191.742 33.8935C191.642 33.6114 191.488 33.4022 191.26 33.2475C191.042 33.0928 190.769 33.02 190.46 33.02C190.059 33.02 189.704 33.1292 189.386 33.3476C189.067 33.566 188.849 33.8571 188.731 34.2211C188.612 34.585 188.558 35.2493 188.558 36.2229V40.1718H186.247V31.455H188.385V32.7379C189.149 31.7553 190.105 31.2639 191.26 31.2639C191.77 31.2639 192.234 31.3549 192.652 31.5369C193.071 31.7189 193.389 31.9554 193.608 32.2375C193.826 32.5196 193.972 32.8471 194.063 33.202C194.145 33.566 194.19 34.0846 194.19 34.7488V40.1627V40.1718Z" fill="#134394"/>
  <path d="M201.196 28.1339H203.626V34.6488C203.626 35.6861 203.653 36.3503 203.717 36.6596C203.817 37.151 204.072 37.5513 204.463 37.8425C204.854 38.1337 205.391 38.2884 206.064 38.2884C206.738 38.2884 207.274 38.1519 207.62 37.8698C207.966 37.5877 208.184 37.242 208.248 36.8325C208.321 36.4231 208.357 35.7407 208.357 34.7853V28.1248H210.787V34.4486C210.787 35.8953 210.723 36.9144 210.586 37.5059C210.459 38.1064 210.213 38.6068 209.859 39.0163C209.504 39.4257 209.031 39.7533 208.439 39.999C207.848 40.2446 207.074 40.3629 206.128 40.3629C204.982 40.3629 204.108 40.2264 203.517 39.9626C202.925 39.6987 202.452 39.3529 202.106 38.9253C201.76 38.4976 201.533 38.0609 201.424 37.5877C201.269 36.8962 201.187 35.8771 201.187 34.5305V28.1157L201.196 28.1339Z" fill="#134394"/>
  <path d="M221.269 40.1718H218.967V35.7224C218.967 34.7852 218.921 34.1756 218.821 33.8935C218.721 33.6114 218.566 33.4022 218.339 33.2475C218.12 33.0928 217.847 33.02 217.538 33.02C217.138 33.02 216.783 33.1292 216.464 33.3476C216.146 33.566 215.927 33.8571 215.809 34.2211C215.691 34.585 215.636 35.2493 215.636 36.2229V40.1718H213.325V31.455H215.463V32.7379C216.228 31.7553 217.183 31.2639 218.339 31.2639C218.848 31.2639 219.312 31.3549 219.731 31.5369C220.149 31.7189 220.468 31.9554 220.686 32.2375C220.905 32.5196 221.05 32.8471 221.141 33.202C221.223 33.566 221.269 34.0846 221.269 34.7488V40.1627V40.1718Z" fill="#134394"/>
  <path d="M223.607 30.2723V28.134H225.909V30.2723H223.607ZM223.607 40.172V31.4552H225.909V40.172H223.607Z" fill="#134394"/>
  <path d="M227.747 35.686C227.747 34.9217 227.938 34.1756 228.311 33.4659C228.684 32.747 229.221 32.2011 229.913 31.8281C230.604 31.4459 231.378 31.2639 232.233 31.2639C233.552 31.2639 234.635 31.6916 235.472 32.5469C236.318 33.4022 236.737 34.4849 236.737 35.7952C236.737 37.1054 236.309 38.2064 235.463 39.0708C234.617 39.9352 233.543 40.372 232.251 40.372C231.45 40.372 230.686 40.19 229.967 39.826C229.248 39.4621 228.693 38.9343 228.311 38.2337C227.929 37.5331 227.747 36.6869 227.747 35.686ZM230.113 35.8134C230.113 36.6778 230.322 37.342 230.732 37.797C231.141 38.261 231.651 38.4885 232.251 38.4885C232.852 38.4885 233.361 38.261 233.761 37.797C234.162 37.3329 234.371 36.6687 234.371 35.7952C234.371 34.9217 234.171 34.2848 233.761 33.8207C233.352 33.3567 232.852 33.1292 232.251 33.1292C231.651 33.1292 231.141 33.3567 230.732 33.8207C230.322 34.2848 230.113 34.9399 230.113 35.8043V35.8134Z" fill="#134394"/>
  <path d="M246.482 40.1718H244.18V35.7224C244.18 34.7852 244.134 34.1756 244.034 33.8935C243.934 33.6114 243.779 33.4022 243.552 33.2475C243.334 33.0928 243.061 33.02 242.751 33.02C242.351 33.02 241.996 33.1292 241.678 33.3476C241.359 33.566 241.141 33.8571 241.022 34.2211C240.904 34.585 240.85 35.2493 240.85 36.2229V40.1718H238.538V31.455H240.677V32.7379C241.441 31.7553 242.396 31.2639 243.552 31.2639C244.062 31.2639 244.526 31.3549 244.944 31.5369C245.363 31.7189 245.681 31.9554 245.9 32.2375C246.118 32.5196 246.263 32.8471 246.354 33.202C246.436 33.566 246.482 34.0846 246.482 34.7488V40.1627V40.1718Z" fill="#134394"/>
</svg>
