<svg width="256" height="256" viewBox="0 0 256 256" fill="none" xmlns="http://www.w3.org/2000/svg">
<g clip-path="url(#clip0_90_23)">
<rect width="255" height="256" transform="translate(0.384033)" fill="#ACC4EB"/>
<path d="M-14.1078 130.957C-18.6725 114.716 -17.6378 97.2909 -11.5947 81.5695C-5.34065 65.2988 6.41128 52.8295 20.4137 42.8773C34.7066 32.7214 50.287 24.577 64.1999 13.8538C77.5735 3.54598 89.6976 -8.34597 100.238 -21.5603C112.119 -36.4566 121.992 -52.8692 129.48 -70.4144C130.602 -73.0453 126.746 -75.3365 125.614 -72.6837C111.966 -40.6996 90.3463 -12.3852 63.0657 9.09135C49.0971 20.0883 33.3277 28.3146 18.8259 38.5185C4.6165 48.5166 -7.53935 60.7661 -14.5117 76.9429C-21.9795 94.2724 -23.5436 113.941 -18.4257 132.15C-17.6437 134.928 -13.3238 133.75 -14.1078 130.957Z" fill="#9DB8E0"/>
<path d="M-10.6431 145.071C-15.1123 128.171 -8.41257 110.468 2.66282 97.6415C14.1163 84.3773 29.4857 75.4878 44.7835 67.4254C60.5748 59.1013 76.3959 51.0948 90.4083 39.8841C102.711 30.0417 113.54 18.4015 122.632 5.51881C132.925 -9.0679 140.84 -25.3007 146.024 -42.4005C146.864 -45.1732 142.544 -46.3597 141.706 -43.595C132.304 -12.5717 113.516 15.2872 88.4523 35.729C74.3245 47.2513 58.1372 55.2998 42.1131 63.7618C26.7676 71.8662 11.3186 80.9035 -0.232357 94.1518C-12.5255 108.251 -19.8958 127.6 -14.9591 146.268C-14.2209 149.061 -9.90097 147.876 -10.6412 145.073L-10.6431 145.071Z" fill="#9DB8E0"/>
<path d="M-8.42889 180.118C-8.4448 158.9 4.80148 140.829 20.6544 127.996C39.0365 113.118 61.828 105.203 83.0077 95.349C93.6413 90.4028 104.014 84.9013 113.567 78.0534C122.4 71.7229 130.571 64.4895 138.03 56.5829C153.633 40.0485 166.169 20.8073 176.456 0.567284C189.368 -24.8386 198.917 -51.7767 208.293 -78.6448C209.248 -81.3796 204.924 -82.5563 203.975 -79.8395C187.953 -33.9259 170.912 13.4201 137.893 50.1166C130.429 58.4128 122.233 66.0976 113.271 72.7417C103.77 79.7854 93.4345 85.4786 82.765 90.5227C61.5614 100.549 38.8335 108.359 20.0456 122.804C2.1172 136.59 -12.9259 156.544 -12.9079 180.118C-12.906 183.011 -8.4269 183.015 -8.42889 180.118Z" fill="#9DB8E0"/>
<path d="M-2.31574 212.018C-3.99515 199.124 1.05302 186.726 9.22525 176.93C18.1317 166.253 30.0369 159.183 42.6604 153.763C56.1196 147.984 70.2454 143.957 83.7682 138.34C96.0057 133.256 107.789 127.131 118.998 120.049C165.429 90.71 200.899 46.6483 224.972 -2.44151C239.454 -31.9745 250.076 -63.2914 257.848 -95.2375C258.531 -98.0462 254.215 -99.2448 253.53 -96.4321C246.546 -67.7202 237.295 -39.5017 224.897 -12.6695C212.864 13.3716 197.921 38.1783 179.606 60.2661C162.396 81.0215 142.341 99.4915 119.766 114.226C108.611 121.507 96.8573 127.884 84.6238 133.144C71.2442 138.895 57.2239 142.944 43.7607 148.474C31.1671 153.645 18.9853 160.13 9.41823 170.024C0.820181 178.917 -5.69249 190.218 -6.95802 202.705C-7.27241 205.816 -7.19484 208.928 -6.79091 212.026C-6.42279 214.853 -1.94169 214.891 -2.31379 212.026L-2.31574 212.018Z" fill="#9DB8E0"/>
<path d="M-12.1001 249.955C-4.54669 218.129 25.3466 199.289 53.5365 187.673C69.4491 181.117 85.8572 175.857 101.686 169.087C114.935 163.42 127.785 156.823 140.138 149.396C164.794 134.572 187.506 116.455 207.591 95.8277C227.676 75.2002 245.081 52.1794 259.38 27.275C273.727 2.28857 284.912 -24.5896 292.248 -52.4826C293.16 -55.9504 294.009 -59.4342 294.805 -62.9321C295.446 -65.7487 291.13 -66.9494 290.487 -64.1267C284.054 -35.8662 273.735 -8.58848 260.013 16.9153C246.291 42.4191 229.268 66.1209 209.533 87.2878C189.806 108.445 167.41 127.081 142.914 142.424C130.803 150.009 118.192 156.793 105.176 162.676C89.7175 169.664 73.5959 174.948 57.8205 181.141C29.354 192.315 -0.567008 208.64 -13.0492 238.411C-14.458 241.771 -15.5823 245.219 -16.422 248.764C-17.0886 251.577 -12.7726 252.776 -12.104 249.959L-12.1001 249.955Z" fill="#9DB8E0"/>
<path d="M38.8991 264.247C50.0282 244.71 67.8133 230.371 86.0979 217.912C106.603 203.938 128.209 191.707 149.798 179.525C189.692 157.016 230.14 134.167 262.894 101.568C279.846 84.6957 294.469 65.3426 304.551 43.5484C305.757 40.9415 301.899 38.6563 300.685 41.2792C282.432 80.7324 249.819 111.072 214.549 135.29C174.086 163.075 129.335 183.778 88.4698 210.918C67.8969 224.58 47.4912 240.113 35.0329 261.982C33.6002 264.497 37.4665 266.764 38.8991 264.251V264.247Z" fill="#9DB8E0"/>
<path d="M101.216 282.446C116.741 241.191 154.641 214.603 191.254 193.522C212.126 181.504 233.586 170.451 253.639 157.055C271.675 145.009 288.525 131.146 303.837 115.762C321.126 98.3927 336.458 79.0755 349.497 58.3022C351.037 55.8471 347.165 53.5898 345.631 56.0329C322.111 93.5045 290.951 126.09 254.501 151.062C216.221 177.289 172.044 194.497 137.043 225.55C119.748 240.894 105.113 259.428 96.8986 281.25C95.8798 283.959 100.206 285.131 101.216 282.446Z" fill="#9DB8E0"/>
<path d="M123.453 306.564C138.978 265.309 176.878 238.721 213.491 217.64C234.362 205.622 255.822 194.569 275.876 181.173C293.912 169.127 310.762 155.264 326.073 139.88C343.363 122.51 358.695 103.193 371.734 82.4198C373.274 79.9647 369.402 77.7074 367.868 80.1506C344.348 117.622 313.187 150.207 276.738 175.18C238.457 201.407 194.281 218.614 159.28 249.668C141.984 265.011 127.349 283.545 119.135 305.368C118.116 308.076 122.442 309.249 123.453 306.564Z" fill="#9DB8E0"/>
<g filter="url(#filter0_d_90_23)">
<path d="M187.339 90.8764C181.347 80.6885 173.221 72.68 162.921 66.8529C152.584 61.0258 140.826 58.0933 127.568 58.0933C114.461 58.0933 102.701 61.0258 92.3282 66.8529C81.9174 72.68 73.7531 80.6885 67.7617 90.8764C61.8062 101.064 58.8115 112.794 58.8115 126.105C58.8115 139.113 61.8082 150.694 67.7617 160.881C73.7531 171.069 81.9174 179.078 92.3282 184.905C102.701 190.732 114.461 193.627 127.568 193.627C128.617 193.627 129.665 193.627 130.714 193.513L129.44 163.247C128.842 163.322 128.205 163.323 127.568 163.323C121.165 163.323 115.434 161.668 110.378 158.398C105.284 155.128 101.278 150.692 98.3574 145.088C95.3985 139.525 94.0136 133.17 94.1628 126.103C94.0136 118.733 95.3985 112.229 98.3574 106.628C101.278 101.064 105.286 96.6276 110.378 93.3175C115.434 90.0474 121.163 88.3933 127.568 88.3933C134.085 88.3933 139.851 90.0094 144.87 93.2056C149.85 96.4018 153.782 100.839 156.63 106.514C159.513 112.191 160.862 118.733 160.711 126.103C160.711 126.818 160.711 127.531 160.673 128.246L196.138 131.141C196.251 129.487 196.287 127.795 196.287 126.103C196.287 112.794 193.29 101.064 187.337 90.8744L187.339 90.8764Z" fill="white"/>
<path d="M206.139 162.234L176.89 176.183L160.337 207.462L153.82 189.116L143.298 159.377L133.448 131.554L158.053 141.932L190.109 155.466L206.139 162.234Z" fill="#000BC8"/>
</g>
</g>
<defs>
<filter id="filter0_d_90_23" x="47.8115" y="46.0933" width="179.327" height="181.369" filterUnits="userSpaceOnUse" color-interpolation-filters="sRGB">
<feFlood flood-opacity="0" result="BackgroundImageFix"/>
<feColorMatrix in="SourceAlpha" type="matrix" values="0 0 0 0 0 0 0 0 0 0 0 0 0 0 0 0 0 0 127 0" result="hardAlpha"/>
<feOffset dx="5" dy="4"/>
<feGaussianBlur stdDeviation="8"/>
<feColorMatrix type="matrix" values="0 0 0 0 0 0 0 0 0 0 0 0 0 0 0 0 0 0 0.17 0"/>
<feBlend mode="normal" in2="BackgroundImageFix" result="effect1_dropShadow_90_23"/>
<feBlend mode="normal" in="SourceGraphic" in2="effect1_dropShadow_90_23" result="shape"/>
</filter>
<clipPath id="clip0_90_23">
<rect width="255" height="256" fill="white" transform="translate(0.384033)"/>
</clipPath>
</defs>
</svg>
