<svg width="401" height="98" viewBox="0 0 401 98" fill="none" xmlns="http://www.w3.org/2000/svg">
<path d="M28.8808 44.9173L27.3784 43.0844L14.8633 47.9522L14.4577 48.1024L14.8633 48.5982L19.2504 53.9167L36.1374 74.4095H52.9793L28.8808 44.9173ZM34.665 22.3061L14.8633 42.4233L10.2359 47.1259L14.0821 58.7544L14.8633 58.0183V48.5982L19.2504 53.9167L28.8808 44.9173L53.0845 22.3061H34.665ZM0.890991 1.52783V74.4095H14.8633V1.52783H0.890991Z" fill="#152A49"/>
<path d="M61.7834 1.52783V74.4095H75.7708V1.52783H61.7834Z" fill="#152A49"/>
<path d="M151.387 60.1223C150.065 61.1139 148.637 61.8501 147.105 62.3459C145.558 62.8417 143.935 63.0821 142.222 63.0821C139.668 63.0821 137.339 62.421 135.236 61.1139C133.133 59.8068 131.45 58.0339 130.203 55.7953C128.956 53.5568 128.34 51.0628 128.34 48.3134C128.34 45.4889 128.926 42.9348 130.113 40.6812C131.3 38.4125 132.937 36.6397 135.041 35.3627C137.129 34.0856 139.533 33.4396 142.222 33.4396C143.935 33.4396 145.588 33.7401 147.195 34.326C148.803 34.912 150.305 35.7383 151.672 36.79C153.055 37.8417 154.211 38.9835 155.128 40.2305L162.715 30.9757C160.536 27.9559 157.532 25.5821 153.701 23.8393C149.854 22.0965 145.603 21.2251 140.945 21.2251C135.957 21.2251 131.495 22.412 127.544 24.7707C123.607 27.1295 120.512 30.3747 118.244 34.4762C115.975 38.5778 114.848 43.2202 114.848 48.4035C114.848 53.4666 115.975 58.049 118.244 62.1506C120.512 66.2521 123.607 69.4823 127.544 71.8411C131.495 74.2149 135.957 75.3867 140.945 75.3867C145.347 75.3867 149.524 74.5153 153.505 72.7875C157.472 71.0447 160.536 68.7611 162.715 65.9366L155.128 56.6818C153.941 57.9889 152.694 59.1457 151.387 60.1223Z" fill="#152A49"/>
<path d="M184.56 60.8729C183.178 59.3856 181.21 58.6494 178.655 58.6494C176.297 58.6494 174.389 59.4307 172.946 61.0082C171.504 62.5857 170.768 64.629 170.768 67.123C170.768 69.8123 171.459 71.8856 172.841 73.3279C174.223 74.7702 176.161 75.4914 178.655 75.4914C181.014 75.4914 182.937 74.7251 184.41 73.1776C185.897 71.6302 186.633 69.617 186.633 67.123C186.633 64.4337 185.942 62.3453 184.56 60.8729Z" fill="#152A49"/>
<path d="M89.2053 74.4088V23.4097H96.1975H103.191V74.4088H89.2053Z" fill="#152A49"/>
<path d="M102.063 2.57997C100.681 1.09259 98.7126 0.356445 96.1435 0.356445C93.7847 0.356445 91.8766 1.13771 90.4343 2.71523C88.992 4.29275 88.2709 6.33604 88.2709 8.83003C88.2709 11.5193 88.962 13.5926 90.3442 15.0349C91.7114 16.4772 93.6495 17.1983 96.1435 17.1983C98.5173 17.1983 100.44 16.4321 101.913 14.8847C103.385 13.3372 104.121 11.324 104.121 8.83003C104.121 6.14072 103.43 4.05233 102.063 2.57997Z" fill="#152A49"/>
<path d="M219.13 61.1156L229.166 50.1782C231.66 47.4288 233.794 44.8296 235.567 42.3957C237.339 39.9768 238.782 37.6931 239.894 35.5597C241.02 33.4263 241.817 31.383 242.312 29.4449C242.808 27.5218 243.049 25.6289 243.049 23.7959C243.049 19.9197 242.132 16.4943 240.299 13.5495C238.451 10.5898 235.942 8.27611 232.757 6.60844C229.572 4.92575 225.981 4.09936 221.97 4.09936C218.169 4.02424 214.593 4.77544 211.243 6.35297C207.892 7.93049 205.008 10.154 202.574 13.0086C200.14 15.8632 198.277 19.1985 196.955 22.9996L207.982 29.3097C208.974 26.8158 210.116 24.7124 211.438 22.9996C212.745 21.3019 214.157 19.9949 215.675 19.1085C217.177 18.222 218.755 17.7863 220.392 17.7863C222.24 17.7863 223.773 18.0868 225.035 18.7178C226.267 19.3488 227.213 20.2352 227.829 21.377C228.46 22.5188 228.776 23.8861 228.776 25.4636C228.776 26.7707 228.415 28.228 227.679 29.7905C226.958 31.368 226.011 32.9906 224.824 34.6733C223.653 36.341 222.421 37.9636 221.144 39.5411C219.851 41.1186 218.619 42.5009 217.448 43.6878L197.255 66.2389L200.606 74.4119H245.813V61.1156H219.13Z" fill="#152A49"/>
<path d="M269.626 60.8729C268.244 59.3856 266.276 58.6494 263.707 58.6494C261.348 58.6494 259.44 59.4307 257.997 61.0082C256.555 62.5857 255.834 64.629 255.834 67.123C255.834 69.8123 256.525 71.8856 257.907 73.3279C259.274 74.7702 261.213 75.4914 263.707 75.4914C266.08 75.4914 268.003 74.7251 269.476 73.1776C270.948 71.6302 271.684 69.617 271.684 67.123C271.684 64.4337 270.993 62.3453 269.626 60.8729Z" fill="#152A49"/>
<path d="M319.912 22.3068L319.716 28.1811C319.191 27.6102 318.605 27.0694 317.943 26.5436C316.681 25.567 315.299 24.6656 313.752 23.8393C312.204 23.0129 310.537 22.3819 308.734 21.9161C306.916 21.4504 305.038 21.2251 303.07 21.2251C298.397 21.2251 294.221 22.3819 290.51 24.6806C286.799 26.9793 283.869 30.1493 281.691 34.2208C279.527 38.2924 278.445 42.9648 278.445 48.2082C278.445 53.3314 279.527 57.8687 281.691 61.805C283.869 65.7412 286.829 68.8362 290.615 71.1048C294.386 73.3735 298.668 74.5003 303.46 74.5003C306.345 74.5003 309.109 73.9444 311.739 72.8326C314.353 71.7209 316.576 70.2636 318.379 68.4456C318.71 68.1001 319.025 67.7696 319.311 67.424V71.165C319.311 74.305 318.77 76.9191 317.688 78.9925C316.606 81.0508 314.969 82.6133 312.76 83.665C310.567 84.7167 307.727 85.2425 304.242 85.2425C301.357 85.2425 298.547 84.8068 295.828 83.9654C293.109 83.109 290.69 81.9522 288.587 80.5099L283.659 90.561C286.153 92.5291 289.428 94.1067 293.469 95.2786C297.496 96.4655 301.552 97.0514 305.624 97.0514C309.966 97.0514 313.827 96.4655 317.252 95.2786C320.663 94.1067 323.563 92.3789 325.966 90.1103C328.355 87.8567 330.203 85.0622 331.48 81.7419C332.757 78.4216 333.403 74.6656 333.403 70.4739V22.3068H319.912ZM318.079 56.0958C316.937 58.3194 315.329 60.0622 313.256 61.3092C311.198 62.5562 308.779 63.1872 306.014 63.1872C303.325 63.1872 300.966 62.5562 298.923 61.3092C296.895 60.0622 295.302 58.3044 294.16 56.0358C293.004 53.7822 292.433 51.1679 292.433 48.2082C292.433 45.2635 293.004 42.6644 294.16 40.4258C295.302 38.2022 296.895 36.4444 298.923 35.1674C300.966 33.8753 303.325 33.2443 306.014 33.2443C308.779 33.2443 311.198 33.8753 313.256 35.1674C315.329 36.4444 316.937 38.2022 318.079 40.4258C319.236 42.6644 319.806 45.2936 319.806 48.3134C319.806 51.2581 319.236 53.8573 318.079 56.0958Z" fill="#9DB5DD"/>
<path d="M393.349 34.326C390.945 30.2545 387.685 27.0544 383.554 24.7256C379.407 22.3969 374.689 21.2251 369.371 21.2251C364.113 21.2251 359.395 22.3969 355.233 24.7256C351.057 27.0544 347.781 30.2545 345.378 34.326C342.989 38.3975 341.787 43.085 341.787 48.4035C341.787 53.6019 342.989 58.2293 345.378 62.3008C347.781 66.3723 351.057 69.5724 355.233 71.9012C359.395 74.2299 364.113 75.3867 369.371 75.3867C369.792 75.3867 370.212 75.3867 370.633 75.3416L370.122 63.2473C369.882 63.2773 369.626 63.2774 369.371 63.2774C366.802 63.2774 364.503 62.6163 362.475 61.3092C360.432 60.0021 358.824 58.2292 357.652 55.9907C356.465 53.7671 355.909 51.2281 355.97 48.4035C355.909 45.4588 356.465 42.8597 357.652 40.6211C358.824 38.3975 360.432 36.6247 362.475 35.3026C364.503 33.9955 366.802 33.3345 369.371 33.3345C371.985 33.3345 374.299 33.9805 376.312 35.2575C378.31 36.5345 379.888 38.3073 381.03 40.576C382.187 42.8446 382.727 45.4588 382.667 48.4035C382.667 48.689 382.667 48.9745 382.652 49.2599L396.88 50.4168C396.925 49.7557 396.94 49.0796 396.94 48.4035C396.94 43.085 395.738 38.3975 393.349 34.326Z" fill="#9DB5DD"/>
<path d="M400.891 62.8416L389.157 68.4156L382.516 80.917L379.902 73.5853L375.681 61.6999L371.729 50.5835L381.6 54.7301L394.461 60.1373L400.891 62.8416Z" fill="#000BC8"/>
</svg>
