<svg role="img" width="255" height="51" viewBox="0 0 255 51" fill="none" xmlns="http://www.w3.org/2000/svg">
      <title>Ministerium für Wirtschaft, Industrie, Klimaschutz und Energie des Landes Nordrhein-Westfalen</title>
      <path fill-rule="evenodd" clip-rule="evenodd" d="M231.152 49.8477C218.222 49.8477 207.731 39.302 207.731 26.3087V0.349365H254.572V26.3087C254.572 39.3111 244.081 49.8477 231.152 49.8477Z" fill="white"></path>
      <path fill-rule="evenodd" clip-rule="evenodd" d="M253.926 26.3087C253.926 38.9563 243.726 49.2017 231.152 49.2017C218.577 49.2017 208.377 38.9563 208.377 26.3087V0.995392H253.926V26.3087ZM254.809 0.112793V26.3087C254.809 39.4385 244.218 50.0843 231.152 50.0843C218.086 50.0843 207.494 39.4385 207.494 26.3087V0.112793H254.8H254.809Z" fill="#181715"></path>
      <path d="M230.56 10.6039V26.3087C230.56 34.2248 226.347 41.1491 220.051 44.9434C216.848 43.0144 214.182 40.2665 212.335 36.9909C213.482 35.799 214.601 34.5888 215.465 33.1784C217.239 30.3032 217.503 26.6545 219.605 23.9794C221.552 21.4954 224.992 20.813 226.821 18.3653C228.568 16.036 229.104 13.0879 230.551 10.6039H230.56ZM209.551 2.16919H227.421C226.757 2.89711 226.111 3.64322 225.519 4.43483C223.272 7.43749 223.49 11.6321 221.216 14.5711C219.223 17.137 215.856 17.8103 214 20.1851C211.889 22.8784 211.753 26.5726 209.769 29.3296C209.633 28.3378 209.56 27.3278 209.56 26.2996V2.16919H209.551ZM231.152 44.3429C230.351 44.3429 229.696 43.6877 229.696 42.887C229.696 42.0863 230.351 41.4312 231.152 41.4312C231.952 41.4312 232.608 42.0863 232.608 42.887C232.608 43.6877 231.952 44.3429 231.152 44.3429ZM235.819 43.4694C236.111 43.7787 236.311 44.17 236.393 44.5885C236.083 44.8706 235.692 45.0708 235.274 45.1527C235.328 44.8069 235.292 44.4612 235.101 44.1609C235.428 44.0244 235.656 43.7787 235.819 43.4694ZM233.153 38.6287C233.545 38.4467 233.972 38.3831 234.391 38.4286C234.564 38.8107 234.637 39.2384 234.582 39.666C234.273 39.5022 233.936 39.4385 233.59 39.5295C233.563 39.1838 233.399 38.8835 233.153 38.6287ZM227.721 39.666C227.676 39.2384 227.74 38.8107 227.912 38.4286C228.331 38.3831 228.759 38.4467 229.15 38.6287C228.904 38.8744 228.731 39.1747 228.713 39.5295C228.377 39.4476 228.04 39.5113 227.721 39.666ZM227.03 45.1527C226.611 45.0708 226.229 44.8706 225.911 44.5885C225.993 44.17 226.193 43.7878 226.484 43.4785C226.639 43.7878 226.875 44.0426 227.203 44.17C227.012 44.4703 226.975 44.816 227.03 45.1527ZM232.043 47.5002C231.834 47.8733 231.525 48.1826 231.161 48.3919C230.797 48.1826 230.487 47.8733 230.278 47.5093C230.624 47.4547 230.933 47.3091 231.161 47.0362C231.388 47.3 231.698 47.4456 232.043 47.5002Z" fill="#00963F"></path>
      <path fill-rule="evenodd" clip-rule="evenodd" d="M233.426 42.887C233.426 44.1427 232.407 45.1709 231.142 45.1709C229.878 45.1709 228.859 44.1518 228.859 42.887C228.859 41.6223 229.878 40.6032 231.142 40.6032C232.407 40.6032 233.426 41.6223 233.426 42.887ZM228.54 46.4811C227.585 45.7896 227.221 44.5794 228.149 44.1154C228.213 43.9516 228.149 43.7605 228.003 43.6696C226.984 43.8333 226.566 42.6505 226.93 41.5222C227.294 40.3939 228.331 39.6842 229.059 40.4121C229.232 40.4121 229.395 40.3029 229.441 40.1392C228.968 39.2202 229.969 38.4558 231.152 38.4558C232.334 38.4558 233.335 39.2202 232.862 40.1392C232.908 40.3029 233.071 40.4212 233.244 40.4121C233.972 39.6842 235.01 40.3939 235.374 41.5222C235.737 42.6505 235.319 43.8333 234.3 43.6696C234.154 43.7605 234.091 43.9516 234.154 44.1154C235.073 44.5794 234.718 45.7896 233.763 46.4811C232.808 47.1727 231.543 47.1454 231.388 46.1263C231.252 46.0171 231.051 46.0171 230.915 46.1263C230.76 47.1454 229.496 47.1818 228.54 46.4811ZM237.721 30.8946H241.825C241.825 29.2022 240.569 28.0921 240.569 26.1177C240.569 24.8256 241.079 24.0158 242.425 23.6245C242.762 23.9339 243.062 24.3161 243.317 24.8529C243.326 26.5817 243.617 27.7737 244.027 28.629C244.027 28.629 243.099 29.3387 243.099 31.9501C243.099 31.9501 239.395 31.7772 238.958 32.2595H238.376V33.0966C237.466 33.3968 236.62 33.4059 236.01 33.1239C236.01 32.3777 236.811 31.7044 236.811 31.7044C236.893 31.7044 236.966 31.7135 237.03 31.7135C237.421 31.7135 237.739 31.3951 237.739 31.0038C237.739 30.9583 237.739 30.9219 237.73 30.8764L237.721 30.8946ZM233.181 17.6101C232.735 17.1734 232.735 16.2362 232.735 16.0724C232.798 16.036 232.853 15.9996 232.908 15.945C233.181 15.672 233.181 15.2171 232.908 14.9441C232.862 14.8986 232.817 14.8622 232.771 14.8349C233.172 13.6612 233.945 13.0424 234.263 11.3773H235.483L238.376 13.6521C237.858 14.2344 237.43 14.9168 237.239 15.7812L235.701 12.9151C234.709 12.9151 234.109 13.734 234.618 14.9532L234.245 15.3263L234.818 15.9359C234.391 16.7821 233.818 17.3736 233.19 17.6192L233.181 17.6101ZM245.082 38.01C245.082 37.2821 245.801 36.6543 245.865 36.5906C245.901 36.5906 245.937 36.5906 245.974 36.5906C246.365 36.5906 246.684 36.2721 246.684 35.8808C246.684 35.7717 246.656 35.6716 246.62 35.5806C248.558 32.1139 248.048 31.6134 245.037 29.1567C244.209 28.4834 243.963 26.518 243.963 24.7073C242.771 21.9139 239.532 22.2415 238.312 19.4936L239.723 19.5664C240.451 19.6028 240.96 19.166 241.197 18.8112C241.424 18.4745 241.197 18.0196 240.833 18.1379C240.669 18.5928 240.223 18.9477 239.732 18.9204L236.22 18.7293C235.519 19.4208 235.674 20.4308 236.893 20.9494V21.4772H237.73C238.03 22.4235 238.04 23.2697 237.767 23.8429C237.102 23.8429 236.347 23.0422 236.347 23.0422C236.347 22.9603 236.356 22.8875 236.356 22.8147C236.356 22.4235 236.038 22.105 235.646 22.105C235.592 22.105 235.537 22.105 235.483 22.1232C235.082 21.4954 235.146 20.1396 234.118 18.6383L234.9 17.692L237.748 16.7366C237.83 13.3973 241.67 12.6239 242.261 10.1854C243.08 10.1854 243.599 9.9397 243.99 9.15719C244.09 8.95701 244.045 8.48387 243.526 8.58396C243.244 9.39376 242.862 9.53935 242.325 9.53935C240.942 9.53935 239.823 9.30278 239.641 9.9215C239.332 10.9588 237.885 10.3128 237.885 10.3128L238.24 10.058C238.24 10.058 238.294 10.058 238.331 10.058C238.595 10.058 238.813 9.9215 238.813 9.73952C238.813 9.55755 238.595 9.42106 238.331 9.42106C238.067 9.42106 237.848 9.55755 237.848 9.73952C237.848 9.74862 237.848 9.75772 237.848 9.76682L237.521 10.0034C237.093 10.0034 237.02 9.66673 237.011 9.51205C237.184 9.51205 237.302 9.37557 237.302 9.20269C237.302 9.02981 237.175 8.89332 237.02 8.89332C237.02 8.76594 237.102 8.50207 237.403 8.25639L239.859 6.30012C240.214 6.01805 240.924 5.63589 241.242 5.47211C241.206 4.93527 241.406 4.22555 241.406 3.73421C241.406 3.73421 242.134 4.04358 242.425 4.74419C242.644 5.26284 242.507 5.5904 242.407 5.84517C242.543 6.05445 243.099 6.05445 243.162 5.51761C243.19 5.30833 243.18 5.05356 243.108 4.76239C244.063 4.86248 245.41 5.19914 247.484 4.98987C247.066 5.47211 246.529 5.82697 245.956 6.08174C246.984 6.32741 248.258 6.83696 248.895 7.89244C248.394 8.14721 247.857 8.31099 247.311 8.42018C248.303 9.28458 248.694 10.5766 249.541 11.0953C248.44 11.4046 247.539 11.3136 246.82 11.068C247.166 11.7686 247.703 12.5966 248.43 12.9697C247.43 13.4155 246.465 13.6703 245.71 13.8159C245.946 14.2071 246.292 14.6894 246.711 15.0078C245.937 15.0351 245.31 15.2535 244.955 15.4173C244.891 16.3181 244.636 18.2016 246.938 20.6219C249.996 22.933 250.76 24.6891 248.349 27.7919C248.349 29.366 248.613 30.0029 249.431 31.6043C249.359 31.759 249.031 32.5142 248.694 33.4423C248.33 34.4523 248.057 35.5715 248.057 36.5451C248.057 36.5451 247.539 36.5451 247.539 37.091V37.9281C246.593 38.2284 245.619 38.2375 245.055 37.9645L245.082 38.01ZM239.859 7.3374C240.187 7.89244 241.033 7.3374 241.033 7.3374C241.033 7.3374 240.014 6.37291 239.859 7.3374ZM251.879 16.127C251.879 17.5373 250.605 18.147 250.605 19.1933C250.605 20.4399 251.833 21.0404 251.833 22.2415C251.833 23.4426 250.86 23.6973 250.223 23.479C250.223 23.479 250.614 23.3789 250.614 22.8966C250.614 21.4226 247.466 21.5045 247.466 19.1933C247.466 17.9832 248.321 17.0278 248.321 16.309C248.321 15.945 248.048 15.4355 247.584 15.2717C248.23 14.8167 249.313 15.0988 249.595 15.7903C249.823 15.208 250.023 14.3436 249.759 13.4974C251.242 14.0615 251.87 15.026 251.879 16.1088V16.127ZM231.734 2.17829H252.743V26.3178C252.743 34.2339 248.531 41.1582 242.234 44.9525C235.947 41.1582 231.725 34.2339 231.725 26.3178V2.16919L231.734 2.17829Z" fill="#E3000F"></path>
      <path d="M0.938965 1.58691H2.75876L4.94253 8.05628H4.96072L7.08076 1.58691H8.93696V9.74868H7.59941V3.66148H7.58122C7.46294 4.22561 7.28096 4.75335 7.09898 5.32659L5.50666 9.74868H4.2874L2.71327 5.32659C2.5131 4.74425 2.3948 4.38939 2.22192 3.60688H2.20373V9.74868H0.957181V1.58691H0.938965Z" fill="#181715"></path>
      <path d="M10.6567 1.69604H12.0489V2.87891H10.6567V1.69604ZM10.6658 3.88889H12.0307V9.73953H10.6658V3.88889Z" fill="#181715"></path>
      <path d="M13.6046 3.88897H14.9694V4.68058C15.3425 4.28023 16.0522 3.77979 17.1077 3.77979C18.1632 3.77979 18.791 4.38942 18.791 5.54498V9.7487H17.4261V5.89074C17.4261 5.24472 17.1532 4.94445 16.5526 4.94445C15.9521 4.94445 15.4607 5.25382 14.9603 5.70876V9.7578H13.5955V3.90717L13.6046 3.88897Z" fill="#181715"></path>
      <path d="M20.2925 1.69604H21.6846V2.87891H20.2925V1.69604ZM20.3016 3.88889H21.6664V9.73953H20.3016V3.88889Z" fill="#181715"></path>
      <path d="M22.8037 8.93872L23.5408 8.11071C23.9775 8.48377 24.6326 8.80223 25.3787 8.80223C26.1248 8.80223 26.5434 8.61116 26.5434 8.12891C26.5434 7.64667 25.952 7.51018 25.2423 7.3464C24.2414 7.11893 23.0403 6.84596 23.0403 5.49021C23.0403 4.46203 23.9229 3.77051 25.215 3.77051C26.325 3.77051 27.0074 4.08897 27.6171 4.59851L26.9711 5.48111C26.5434 5.12625 25.8428 4.84419 25.315 4.84419C24.5689 4.84419 24.3232 5.10805 24.3232 5.43562C24.3232 5.90876 24.9056 6.05435 25.6062 6.20903C26.6071 6.4274 27.8354 6.68218 27.8354 8.04702C27.8354 9.28448 26.7254 9.85771 25.3878 9.85771C24.3051 9.85771 23.3406 9.47556 22.8128 8.92962L22.8037 8.93872Z" fill="#181715"></path>
      <path d="M29.364 8.211V4.97177H28.354V3.889H29.364V1.85083H30.7197V3.889H32.2302V4.97177H30.7197V7.87434C30.7197 8.50217 30.9108 8.75694 31.5842 8.75694C31.7843 8.75694 32.0391 8.72055 32.1665 8.68415V9.75783C32.0209 9.79422 31.5204 9.83062 31.1747 9.83062C29.6825 9.83062 29.364 9.27558 29.364 8.2201V8.211Z" fill="#181715"></path>
      <path d="M32.9583 6.81884C32.9583 4.58959 34.5324 3.77979 35.7516 3.77979C37.0619 3.77979 38.3176 4.5623 38.3176 6.94622V7.26469H34.314C34.3686 8.32017 35.0237 8.78421 35.879 8.78421C36.6434 8.78421 37.0801 8.52944 37.5168 8.10179L38.2357 8.81151C37.626 9.48483 36.8253 9.86699 35.7789 9.86699C34.314 9.86699 32.9583 8.97529 32.9583 6.82794V6.81884ZM37.071 6.2456C36.9982 5.35391 36.5524 4.88076 35.7335 4.88076C35.0692 4.88076 34.4687 5.25382 34.3322 6.2456H37.0619H37.071Z" fill="#181715"></path>
      <path d="M39.5003 3.88879H40.8561V4.84419H40.8742C41.2382 4.26185 41.866 3.77051 42.9761 3.77051H43.0671L43.0216 5.01707C42.9579 5.00797 42.7304 4.99887 42.6576 4.99887C41.7841 4.99887 41.2382 5.40832 40.8469 6.03615V9.73943H39.4912V3.88879H39.5003Z" fill="#181715"></path>
      <path d="M44.0862 1.69604H45.4783V2.87891H44.0862V1.69604ZM44.0953 3.88889H45.4601V9.73953H44.0953V3.88889Z" fill="#181715"></path>
      <path d="M46.9705 8.08342V3.8797H48.3353V7.75586C48.3353 8.40189 48.6083 8.70215 49.2088 8.70215C49.8093 8.70215 50.3007 8.39279 50.8011 7.93784V3.87061H52.166V9.72124H50.8011V8.92963C50.4281 9.32998 49.7183 9.83043 48.6629 9.83043C47.6074 9.83043 46.9795 9.2208 46.9795 8.06523L46.9705 8.08342Z" fill="#181715"></path>
      <path d="M53.6765 3.88879H55.0323V4.6895C55.4872 4.18906 56.1423 3.77051 57.0431 3.77051C58.0258 3.77051 58.408 4.15266 58.6445 4.7259C59.1086 4.21636 59.8001 3.77051 60.6918 3.77051C61.8838 3.77051 62.4024 4.48933 62.4024 5.53571V9.73943H61.0466V5.88147C61.0466 5.23544 60.8556 4.93517 60.2187 4.93517C59.6636 4.93517 59.2269 5.24454 58.7173 5.69949V9.74853H57.3616V5.89057C57.3616 5.24454 57.1705 4.94427 56.5336 4.94427C55.9967 4.94427 55.5418 5.25364 55.0323 5.70859V9.75762H53.6765V3.90699V3.88879Z" fill="#181715"></path>
      <path d="M67.1338 4.97168H66.1147V3.8889H67.1338V3.29747C67.1338 2.31478 67.5433 1.55957 69.0264 1.55957C69.2812 1.55957 69.7361 1.60507 69.8271 1.61416V2.66054C69.7361 2.64235 69.5178 2.61505 69.3631 2.61505C68.8808 2.61505 68.4805 2.75153 68.4805 3.37936V3.898H69.7634V4.98078H68.4805V9.75773H67.1247V4.98078L67.1338 4.97168Z" fill="#181715"></path>
      <path d="M70.6824 8.0835V3.87978H72.0472V7.75593C72.0472 8.40196 72.3202 8.70223 72.9207 8.70223C73.5212 8.70223 74.0126 8.39286 74.513 7.93791V3.87068H75.8779V9.72131H74.513V8.9297C74.14 9.33005 73.4302 9.8305 72.3748 9.8305C71.3193 9.8305 70.6915 9.22087 70.6915 8.0653L70.6824 8.0835ZM71.5741 1.96899H72.8115V3.30654H71.5741V1.96899ZM73.7487 1.96899H74.9953V3.30654H73.7487V1.96899Z" fill="#181715"></path>
      <path d="M77.3885 3.88879H78.7442V4.84419H78.7624C79.1264 4.26185 79.7542 3.77051 80.8643 3.77051H80.9553L80.9098 5.01707C80.8461 5.00797 80.6186 4.99887 80.5458 4.99887C79.6723 4.99887 79.1264 5.40832 78.7351 6.03615V9.73943H77.3794V3.88879H77.3885Z" fill="#181715"></path>
      <path d="M84.3672 1.58691H85.7593L86.7966 5.80883C86.9604 6.45486 87.1151 7.06449 87.2243 7.70142H87.2425C87.3517 7.07359 87.4972 6.46396 87.661 5.81793L88.6437 1.58691H89.9631L90.9822 5.84523C91.155 6.53675 91.2915 7.02809 91.4098 7.71052H91.428C91.5463 7.0008 91.6737 6.57314 91.8283 5.88162L92.8383 1.59601H94.1304L91.983 9.75778H90.782L89.317 3.5068H89.2988L87.752 9.75778H86.5419L84.3672 1.59601V1.58691Z" fill="#181715"></path>
      <path d="M95.3679 1.69604H96.7601V2.87891H95.3679V1.69604ZM95.377 3.88889H96.7419V9.73953H95.377V3.88889Z" fill="#181715"></path>
      <path d="M98.5345 3.88879H99.8902V4.84419H99.9085C100.272 4.26185 100.9 3.77051 102.01 3.77051H102.101L102.056 5.01707C101.992 5.00797 101.765 4.99887 101.692 4.99887C100.818 4.99887 100.272 5.40832 99.8812 6.03615V9.73943H98.5254V3.88879H98.5345Z" fill="#181715"></path>
      <path d="M103.539 8.211V4.97177H102.529V3.889H103.539V1.85083H104.895V3.889H106.405V4.97177H104.895V7.87434C104.895 8.50217 105.086 8.75694 105.759 8.75694C105.959 8.75694 106.214 8.72055 106.341 8.68415V9.75783C106.196 9.79422 105.695 9.83062 105.349 9.83062C103.857 9.83062 103.539 9.27558 103.539 8.2201V8.211Z" fill="#181715"></path>
      <path d="M107.024 8.93872L107.761 8.11071C108.197 8.48377 108.853 8.80223 109.599 8.80223C110.345 8.80223 110.763 8.61116 110.763 8.12891C110.763 7.64667 110.172 7.51018 109.462 7.3464C108.461 7.11893 107.26 6.84596 107.26 5.49021C107.26 4.46203 108.143 3.77051 109.435 3.77051C110.545 3.77051 111.227 4.08897 111.837 4.59851L111.191 5.48111C110.763 5.12625 110.063 4.84419 109.535 4.84419C108.789 4.84419 108.543 5.10805 108.543 5.43562C108.543 5.90876 109.126 6.05435 109.826 6.20903C110.827 6.4274 112.055 6.68218 112.055 8.04702C112.055 9.28448 110.945 9.85771 109.608 9.85771C108.525 9.85771 107.561 9.47556 107.033 8.92962L107.024 8.93872Z" fill="#181715"></path>
      <path d="M112.82 6.81884C112.82 4.58049 114.33 3.77979 115.631 3.77979C117.087 3.77979 117.706 4.58049 118.061 5.49039L116.914 5.89984C116.687 5.23562 116.268 4.91716 115.613 4.91716C114.84 4.91716 114.194 5.4267 114.194 6.82794C114.194 8.07449 114.703 8.75692 115.595 8.75692C116.214 8.75692 116.641 8.56584 116.96 7.74693L118.088 8.15638C117.67 9.09358 116.978 9.87609 115.568 9.87609C114.157 9.87609 112.838 8.97529 112.838 6.83704L112.82 6.81884Z" fill="#181715"></path>
      <path d="M119.153 1.58691H120.518V4.68056C120.891 4.28021 121.6 3.77976 122.656 3.77976C123.711 3.77976 124.339 4.38939 124.339 5.54496V9.74868H122.974V5.89072C122.974 5.2447 122.701 4.94443 122.101 4.94443C121.5 4.94443 121.009 5.2538 120.508 5.70874V9.75778H119.144V1.58691H119.153Z" fill="#181715"></path>
      <path d="M125.422 8.32927C125.422 7.06451 126.505 6.20921 129.234 5.89984V5.72696C129.234 5.14463 128.925 4.88986 128.279 4.88986C127.46 4.88986 126.805 5.29021 126.304 5.68147L125.64 4.83526C126.268 4.26203 127.251 3.77979 128.461 3.77979C130.026 3.77979 130.563 4.5259 130.563 5.89984V8.31107C130.563 9.02079 130.608 9.44844 130.726 9.7487H129.362C129.289 9.50303 129.225 9.33015 129.225 9.00259C128.634 9.61222 127.933 9.83969 127.06 9.83969C126.113 9.83969 125.404 9.31195 125.404 8.33836L125.422 8.32927ZM129.234 8.11089V6.81884C127.615 7.03721 126.75 7.43757 126.75 8.07449C126.75 8.53854 127.069 8.78421 127.569 8.78421C128.261 8.78421 128.807 8.52034 129.234 8.11089Z" fill="#181715"></path>
      <path d="M132.528 4.97168H131.509V3.8889H132.528V3.29747C132.528 2.31478 132.938 1.55957 134.421 1.55957C134.675 1.55957 135.13 1.60507 135.221 1.61416V2.66054C135.13 2.64235 134.912 2.61505 134.757 2.61505C134.275 2.61505 133.875 2.75153 133.875 3.37936V3.898H135.158V4.98078H133.875V9.75773H132.519V4.98078L132.528 4.97168Z" fill="#181715"></path>
      <path d="M136.605 8.211V4.97177H135.594V3.889H136.605V1.85083H137.96V3.889H139.471V4.97177H137.96V7.87434C137.96 8.50217 138.151 8.75694 138.825 8.75694C139.025 8.75694 139.28 8.72055 139.407 8.68415V9.75783C139.261 9.79422 138.761 9.83062 138.415 9.83062C136.923 9.83062 136.605 9.27558 136.605 8.2201V8.211Z" fill="#181715"></path>
      <path d="M141.281 9.73964H140.699V8.302H142.218V9.54856L141.527 10.968H140.899L141.281 9.73054V9.73964Z" fill="#181715"></path>
      <path d="M1.02075 14.8076H2.41289V22.9694H1.02075V14.8076Z" fill="#181715"></path>
      <path d="M4.18733 17.1097H5.55217V17.9013C5.92523 17.5009 6.63496 17.0005 7.69044 17.0005C8.74592 17.0005 9.37375 17.6101 9.37375 18.7657V22.9694H8.00891V19.1114C8.00891 18.4654 7.73592 18.1652 7.13539 18.1652C6.53485 18.1652 6.04351 18.4745 5.54307 18.9295V22.9785H4.17822V17.1279L4.18733 17.1097Z" fill="#181715"></path>
      <path d="M10.5111 20.0487C10.5111 18.0196 11.5119 16.9914 13.0133 16.9914C13.6411 16.9914 14.2598 17.2462 14.6875 17.7284V14.7986H16.0432V21.5227C16.0432 22.2324 16.0887 22.6601 16.2161 22.9604H14.8149C14.7421 22.7966 14.6784 22.469 14.6784 22.1687C14.2507 22.6601 13.6866 23.0513 12.8131 23.0513C11.4755 23.0513 10.502 22.0778 10.502 20.0578L10.5111 20.0487ZM14.6875 21.1952V18.8476C14.3235 18.3745 13.7958 18.1197 13.3135 18.1197C12.2853 18.1197 11.8668 18.7839 11.8668 20.0851C11.8668 21.3862 12.3945 21.9413 13.268 21.9413C13.8322 21.9413 14.369 21.5864 14.6875 21.2043V21.1952Z" fill="#181715"></path>
      <path d="M17.499 21.3134V17.1097H18.8639V20.9858C18.8639 21.6319 19.1368 21.9321 19.7374 21.9321C20.3379 21.9321 20.8292 21.6228 21.3297 21.1678V17.1006H22.6945V22.9512H21.3297V22.1596C20.9566 22.56 20.2469 23.0604 19.1914 23.0604C18.1359 23.0604 17.5081 22.4508 17.5081 21.2952L17.499 21.3134Z" fill="#181715"></path>
      <path d="M23.7683 22.1597L24.5053 21.3317C24.9421 21.7047 25.5972 22.0232 26.3433 22.0232C27.0894 22.0232 27.508 21.8321 27.508 21.3499C27.508 20.8676 26.9165 20.7311 26.2068 20.5673C25.2059 20.3399 24.0049 20.076 24.0049 18.7112C24.0049 17.683 24.8875 16.9915 26.1795 16.9915C27.2896 16.9915 27.972 17.3099 28.5816 17.8195L27.9356 18.7021C27.508 18.3472 26.8073 18.0651 26.2796 18.0651C25.5335 18.0651 25.2878 18.329 25.2878 18.6566C25.2878 19.1297 25.8702 19.2753 26.5708 19.43C27.5717 19.6484 28.8 19.9031 28.8 21.268C28.8 22.5054 27.69 23.0787 26.3524 23.0787C25.2696 23.0787 24.3051 22.6965 23.7774 22.1506L23.7683 22.1597Z" fill="#181715"></path>
      <path d="M30.3195 21.4317V18.1925H29.3096V17.1097H30.3195V15.0715H31.6753V17.1097H33.1857V18.1925H31.6753V21.095C31.6753 21.7229 31.8664 21.9776 32.5397 21.9776C32.7399 21.9776 32.9947 21.9412 33.122 21.9049V22.9694C32.9765 23.0058 32.476 23.0422 32.1302 23.0422C30.638 23.0422 30.3195 22.4872 30.3195 21.4317Z" fill="#181715"></path>
      <path d="M34.2957 17.1097H35.6515V18.0651H35.6697C36.0336 17.4828 36.6614 16.9915 37.7715 16.9915H37.8625L37.817 18.238C37.7533 18.2289 37.5258 18.2198 37.453 18.2198C36.5795 18.2198 36.0336 18.6293 35.6424 19.2571V22.9604H34.2866V17.1097H34.2957Z" fill="#181715"></path>
      <path d="M38.8816 14.9167H40.2737V16.0996H38.8816V14.9167ZM38.8907 17.1096H40.2555V22.9602H38.8907V17.1096Z" fill="#181715"></path>
      <path d="M41.5022 20.0395C41.5022 17.8103 43.0763 17.0005 44.2956 17.0005C45.6058 17.0005 46.8615 17.783 46.8615 20.1669V20.4854H42.8579C42.9125 21.5409 43.5677 22.0049 44.423 22.0049C45.1873 22.0049 45.624 21.7501 46.0699 21.3225L46.7887 22.0322C46.1791 22.7055 45.3783 23.0877 44.332 23.0877C42.867 23.0877 41.5113 22.196 41.5113 20.0486L41.5022 20.0395ZM45.6149 19.4663C45.5421 18.5746 45.0963 18.1015 44.2774 18.1015C43.6131 18.1015 43.0126 18.4745 42.8761 19.4663H45.6058H45.6149Z" fill="#181715"></path>
      <path d="M48.6356 22.9603H48.0532V21.5227H49.5728V22.7693L48.8812 24.1887H48.2534L48.6356 22.9512V22.9603Z" fill="#181715"></path>
      <path d="M54.1313 14.8077H55.5053V18.602L58.7172 14.8077H60.3459L57.5708 17.9468L60.6917 22.9604H59.1176L56.6699 19.0023L55.5144 20.2853V22.9604H54.1404V14.7986L54.1313 14.8077Z" fill="#181715"></path>
      <path d="M61.7109 14.8076H63.0758V22.9694H61.7109V14.8076Z" fill="#181715"></path>
      <path d="M64.6953 14.9167H66.0875V16.0996H64.6953V14.9167ZM64.7044 17.1096H66.0693V22.9602H64.7044V17.1096Z" fill="#181715"></path>
      <path d="M67.6526 17.1097H69.0083V17.9105C69.4633 17.4191 70.1184 16.9915 71.0192 16.9915C72.0019 16.9915 72.384 17.3736 72.6206 17.9468C73.0847 17.4373 73.7762 16.9915 74.6679 16.9915C75.8598 16.9915 76.3785 17.7103 76.3785 18.7567V22.9604H75.0228V19.1024C75.0228 18.4564 74.8317 18.1561 74.1947 18.1561C73.6397 18.1561 73.203 18.4655 72.6934 18.9204V22.9695H71.3377V19.1115C71.3377 18.4655 71.1466 18.1652 70.5097 18.1652C69.9728 18.1652 69.5179 18.4746 69.0083 18.9295V22.9786H67.6526V17.1279V17.1097Z" fill="#181715"></path>
      <path d="M77.4611 21.55C77.4611 20.2852 78.5438 19.4299 81.2735 19.1205V18.9477C81.2735 18.3653 80.9642 18.1106 80.3181 18.1106C79.4992 18.1106 78.8441 18.5109 78.3437 18.9022L77.6795 18.056C78.3073 17.4827 79.2899 17.0005 80.5001 17.0005C82.0651 17.0005 82.602 17.7466 82.602 19.1205V21.5318C82.602 22.2415 82.6475 22.6691 82.7658 22.9694H81.4009C81.3281 22.7237 81.2644 22.5509 81.2644 22.2233C80.673 22.8329 79.9724 23.0604 79.0989 23.0604C78.1526 23.0604 77.4429 22.5327 77.4429 21.5591L77.4611 21.55ZM81.2735 21.3316V20.0395C79.6539 20.2579 78.7895 20.6583 78.7895 21.2952C78.7895 21.7592 79.108 22.0049 79.6084 22.0049C80.2999 22.0049 80.8459 21.741 81.2735 21.3316Z" fill="#181715"></path>
      <path d="M83.6211 22.1597L84.3581 21.3317C84.7949 21.7047 85.45 22.0232 86.1961 22.0232C86.9422 22.0232 87.3608 21.8321 87.3608 21.3499C87.3608 20.8676 86.7693 20.7311 86.0596 20.5673C85.0587 20.3399 83.8576 20.076 83.8576 18.7112C83.8576 17.683 84.7403 16.9915 86.0323 16.9915C87.1424 16.9915 87.8248 17.3099 88.4344 17.8195L87.7884 18.7021C87.3608 18.3472 86.6601 18.0651 86.1324 18.0651C85.3863 18.0651 85.1406 18.329 85.1406 18.6566C85.1406 19.1297 85.7229 19.2753 86.4236 19.43C87.4244 19.6484 88.6528 19.9031 88.6528 21.268C88.6528 22.5054 87.5427 23.0787 86.2052 23.0787C85.1224 23.0787 84.1579 22.6965 83.6302 22.1506L83.6211 22.1597Z" fill="#181715"></path>
      <path d="M89.4172 20.0395C89.4172 17.8012 90.9277 17.0005 92.2288 17.0005C93.6846 17.0005 94.3034 17.8012 94.6582 18.7111L93.5118 19.1205C93.2843 18.4563 92.8657 18.1379 92.2106 18.1379C91.4372 18.1379 90.7912 18.6474 90.7912 20.0486C90.7912 21.2952 91.3007 21.9776 92.1924 21.9776C92.8111 21.9776 93.2388 21.7865 93.5573 20.9676L94.6855 21.3771C94.267 22.3143 93.5755 23.0968 92.1651 23.0968C90.7548 23.0968 89.4354 22.196 89.4354 20.0577L89.4172 20.0395Z" fill="#181715"></path>
      <path d="M95.7501 14.8076H97.1149V17.9104C97.488 17.51 98.1977 17.0096 99.2532 17.0096C100.309 17.0096 100.936 17.6192 100.936 18.7748V22.9785H99.5716V19.1205C99.5716 18.4745 99.2987 18.1742 98.6981 18.1742C98.0976 18.1742 97.6063 18.4836 97.1058 18.9385V22.9876H95.741V14.8258L95.7501 14.8076Z" fill="#181715"></path>
      <path d="M102.329 21.3134V17.1097H103.693V20.9858C103.693 21.6319 103.966 21.9321 104.567 21.9321C105.167 21.9321 105.659 21.6228 106.159 21.1678V17.1006H107.524V22.9512H106.159V22.1596C105.786 22.56 105.076 23.0604 104.021 23.0604C102.966 23.0604 102.338 22.4508 102.338 21.2952L102.329 21.3134Z" fill="#181715"></path>
      <path d="M109.499 21.4317V18.1925H108.489V17.1097H109.499V15.0715H110.855V17.1097H112.365V18.1925H110.855V21.095C110.855 21.7229 111.046 21.9776 111.719 21.9776C111.919 21.9776 112.174 21.9412 112.301 21.9049V22.9694C112.156 23.0058 111.655 23.0422 111.309 23.0422C109.817 23.0422 109.499 22.4872 109.499 21.4317Z" fill="#181715"></path>
      <path d="M113.093 22.1778L116.214 18.1834H113.329V17.1006H117.915V17.9195L114.785 21.9139H118.106V22.9603H113.102V22.1778H113.093Z" fill="#181715"></path>
      <path d="M121.91 21.3134V17.1097H123.275V20.9858C123.275 21.6319 123.547 21.9321 124.148 21.9321C124.749 21.9321 125.24 21.6228 125.74 21.1678V17.1006H127.105V22.9512H125.74V22.1596C125.367 22.56 124.658 23.0604 123.602 23.0604C122.547 23.0604 121.919 22.4508 121.919 21.2952L121.91 21.3134Z" fill="#181715"></path>
      <path d="M128.616 17.1097H129.98V17.9013C130.353 17.5009 131.063 17.0005 132.119 17.0005C133.174 17.0005 133.802 17.6101 133.802 18.7657V22.9694H132.437V19.1114C132.437 18.4654 132.164 18.1652 131.564 18.1652C130.963 18.1652 130.472 18.4745 129.971 18.9295V22.9785H128.606V17.1279L128.616 17.1097Z" fill="#181715"></path>
      <path d="M134.939 20.0487C134.939 18.0196 135.94 16.9914 137.441 16.9914C138.069 16.9914 138.688 17.2462 139.116 17.7284V14.7986H140.471V21.5227C140.471 22.2324 140.517 22.6601 140.644 22.9604H139.243C139.17 22.7966 139.107 22.469 139.107 22.1687C138.679 22.6601 138.115 23.0513 137.241 23.0513C135.904 23.0513 134.93 22.0778 134.93 20.0578L134.939 20.0487ZM139.116 21.1952V18.8476C138.752 18.3745 138.224 18.1197 137.742 18.1197C136.714 18.1197 136.295 18.7839 136.295 20.0851C136.295 21.3862 136.823 21.9413 137.696 21.9413C138.26 21.9413 138.797 21.5864 139.116 21.2043V21.1952Z" fill="#181715"></path>
      <path d="M144.921 14.8076H150.189V16.0906H146.295V18.1196H149.152V19.3389H146.295V21.7137H150.408V22.9694H144.921V14.8076Z" fill="#181715"></path>
      <path d="M151.709 17.1097H153.074V17.9013C153.447 17.5009 154.156 17.0005 155.212 17.0005C156.267 17.0005 156.895 17.6101 156.895 18.7657V22.9694H155.53V19.1114C155.53 18.4654 155.257 18.1652 154.657 18.1652C154.056 18.1652 153.565 18.4745 153.065 18.9295V22.9785H151.7V17.1279L151.709 17.1097Z" fill="#181715"></path>
      <path d="M158.023 20.0395C158.023 17.8103 159.598 17.0005 160.817 17.0005C162.127 17.0005 163.383 17.783 163.383 20.1669V20.4854H159.379C159.434 21.5409 160.089 22.0049 160.944 22.0049C161.709 22.0049 162.145 21.7501 162.591 21.3225L163.31 22.0322C162.7 22.7055 161.9 23.0877 160.853 23.0877C159.388 23.0877 158.033 22.196 158.033 20.0486L158.023 20.0395ZM162.136 19.4663C162.063 18.5746 161.618 18.1015 160.799 18.1015C160.134 18.1015 159.534 18.4745 159.397 19.4663H162.127H162.136Z" fill="#181715"></path>
      <path d="M164.566 17.1097H165.921V18.0651H165.939C166.303 17.4828 166.931 16.9915 168.041 16.9915H168.132L168.087 18.238C168.023 18.2289 167.796 18.2198 167.723 18.2198C166.849 18.2198 166.303 18.6293 165.912 19.2571V22.9604H164.556V17.1097H164.566Z" fill="#181715"></path>
      <path d="M168.487 23.7974C168.487 23.2151 168.851 22.7965 169.443 22.56C169.142 22.4053 168.988 22.1596 168.988 21.8411C168.988 21.4044 169.343 21.0404 169.779 20.7766C169.188 20.4035 168.851 19.803 168.851 19.0932C168.851 17.8922 169.779 17.0005 171.308 17.0005C172.109 17.0005 172.709 17.2644 173.1 17.6192C173.474 17.319 174.074 17.0915 174.556 17.046V18.147C174.292 18.147 173.919 18.1834 173.528 18.3016C173.665 18.5109 173.737 18.7839 173.737 19.0932C173.737 20.3125 172.828 21.1769 171.299 21.1769C170.971 21.1769 170.771 21.1314 170.48 21.0586C170.307 21.1587 170.18 21.277 170.18 21.4317C170.18 21.6592 170.334 21.741 170.853 21.7865L171.89 21.8502C173.619 21.9594 174.302 22.4235 174.302 23.4517C174.302 24.6527 173.091 25.235 171.281 25.235C169.261 25.235 168.46 24.6527 168.46 23.7974H168.487ZM173.128 23.5699C173.128 23.1514 172.828 22.9967 171.636 22.9239L170.626 22.8602C170.507 22.8602 170.398 22.8511 170.271 22.8238C169.889 22.9967 169.734 23.2788 169.734 23.5699C169.734 24.0886 170.325 24.2524 171.517 24.2524C172.509 24.2524 173.128 23.9885 173.128 23.5699ZM172.518 19.1387C172.518 18.4108 172.1 18.0105 171.326 18.0105C170.553 18.0105 170.134 18.4199 170.134 19.1387C170.134 19.8576 170.589 20.2397 171.335 20.2397C172.081 20.2397 172.518 19.8576 172.518 19.1387Z" fill="#181715"></path>
      <path d="M175.621 14.9167H177.013V16.0996H175.621V14.9167ZM175.63 17.1096H176.995V22.9602H175.63V17.1096Z" fill="#181715"></path>
      <path d="M178.241 20.0395C178.241 17.8103 179.815 17.0005 181.035 17.0005C182.345 17.0005 183.601 17.783 183.601 20.1669V20.4854H179.597C179.652 21.5409 180.307 22.0049 181.162 22.0049C181.926 22.0049 182.363 21.7501 182.8 21.3225L183.519 22.0322C182.909 22.7055 182.108 23.0877 181.062 23.0877C179.597 23.0877 178.241 22.196 178.241 20.0486V20.0395ZM182.354 19.4663C182.281 18.5746 181.835 18.1015 181.016 18.1015C180.352 18.1015 179.752 18.4745 179.615 19.4663H182.345H182.354Z" fill="#181715"></path>
      <path d="M0.447584 33.2787C0.447584 31.2496 1.44847 30.2214 2.9498 30.2214C3.57763 30.2214 4.19635 30.4762 4.624 30.9584V28.0286H5.97974V34.7527C5.97974 35.4624 6.02524 35.8901 6.15262 36.1903H4.75138C4.67858 36.0265 4.6149 35.699 4.6149 35.3987C4.18725 35.8901 3.62312 36.2813 2.74962 36.2813C1.41207 36.2813 0.438477 35.3077 0.438477 33.2878L0.447584 33.2787ZM4.624 34.4251V32.0776C4.26005 31.6045 3.7323 31.3497 3.25005 31.3497C2.22187 31.3497 1.80332 32.0139 1.80332 33.3151C1.80332 34.6162 2.33107 35.1712 3.20457 35.1712C3.7687 35.1712 4.30554 34.8164 4.624 34.4342V34.4251Z" fill="#181715"></path>
      <path d="M7.17163 33.2602C7.17163 31.031 8.74576 30.2212 9.96502 30.2212C11.2753 30.2212 12.5309 31.0037 12.5309 33.3876V33.7061H8.5274C8.58199 34.7616 9.23709 35.2256 10.0924 35.2256C10.8567 35.2256 11.2935 34.9708 11.7393 34.5432L12.4581 35.2529C11.8485 35.9262 11.0478 36.3084 10.0014 36.3084C8.53649 36.3084 7.18074 35.4167 7.18074 33.2693L7.17163 33.2602ZM11.2844 32.687C11.2116 31.7953 10.7657 31.3222 9.94683 31.3222C9.28261 31.3222 8.68207 31.6952 8.54558 32.687H11.2753H11.2844Z" fill="#181715"></path>
      <path d="M13.168 35.3804L13.905 34.5524C14.3417 34.9254 14.9969 35.2439 15.743 35.2439C16.4891 35.2439 16.9077 35.0528 16.9077 34.5706C16.9077 34.0883 16.3162 33.9518 15.6065 33.7881C14.6056 33.5606 13.4046 33.2967 13.4046 31.9319C13.4046 30.9037 14.2872 30.2122 15.5792 30.2122C16.6893 30.2122 17.3717 30.5306 17.9813 31.0402L17.3353 31.9228C16.9077 31.5679 16.207 31.2858 15.6793 31.2858C14.9332 31.2858 14.6875 31.5497 14.6875 31.8773C14.6875 32.3504 15.2698 32.496 15.9705 32.6507C16.9714 32.8691 18.1997 33.1238 18.1997 34.4887C18.1997 35.7261 17.0896 36.2994 15.7521 36.2994C14.6693 36.2994 13.7048 35.9172 13.1771 35.3713L13.168 35.3804Z" fill="#181715"></path>
      <path d="M22.3033 28.0284H23.6772V34.9254H27.4351V36.1811H22.2942V28.0193L22.3033 28.0284Z" fill="#181715"></path>
      <path d="M28.1813 34.7707C28.1813 33.5059 29.2641 32.6506 31.9937 32.3412V32.1684C31.9937 31.586 31.6844 31.3313 31.0384 31.3313C30.2195 31.3313 29.5643 31.7316 29.0639 32.1229L28.3997 31.2767C29.0275 30.7034 30.0102 30.2212 31.2203 30.2212C32.7853 30.2212 33.3222 30.9673 33.3222 32.3412V34.7525C33.3222 35.4622 33.3677 35.8898 33.486 36.1901H32.1211C32.0483 35.9444 31.9847 35.7716 31.9847 35.444C31.3932 36.0536 30.6926 36.2811 29.8191 36.2811C28.8728 36.2811 28.1631 35.7534 28.1631 34.7798L28.1813 34.7707ZM31.9937 34.5523V33.2602C30.3741 33.4786 29.5097 33.879 29.5097 34.5159C29.5097 34.9799 29.8282 35.2256 30.3286 35.2256C31.0202 35.2256 31.5661 34.9617 31.9937 34.5523Z" fill="#181715"></path>
      <path d="M34.7869 30.3304H36.1518V31.122C36.5248 30.7216 37.2346 30.2212 38.29 30.2212C39.3455 30.2212 39.9734 30.8308 39.9734 31.9864V36.1901H38.6085V32.3322C38.6085 31.6861 38.3355 31.3859 37.735 31.3859C37.1345 31.3859 36.6431 31.6952 36.1427 32.1502V36.1992H34.7778V30.3486L34.7869 30.3304Z" fill="#181715"></path>
      <path d="M41.1109 33.2787C41.1109 31.2496 42.1118 30.2214 43.6131 30.2214C44.241 30.2214 44.8597 30.4762 45.2873 30.9584V28.0286H46.6431V34.7527C46.6431 35.4624 46.6886 35.8901 46.816 36.1903H45.4147C45.3419 36.0265 45.2782 35.699 45.2782 35.3987C44.8506 35.8901 44.2865 36.2813 43.413 36.2813C42.0754 36.2813 41.1018 35.3077 41.1018 33.2878L41.1109 33.2787ZM45.2873 34.4251V32.0776C44.9234 31.6045 44.3956 31.3497 43.9134 31.3497C42.8852 31.3497 42.4667 32.0139 42.4667 33.3151C42.4667 34.6162 42.9944 35.1712 43.8679 35.1712C44.432 35.1712 44.9689 34.8164 45.2873 34.4342V34.4251Z" fill="#181715"></path>
      <path d="M47.835 33.2602C47.835 31.031 49.4091 30.2212 50.6283 30.2212C51.9386 30.2212 53.1943 31.0037 53.1943 33.3876V33.7061H49.1907C49.2453 34.7616 49.9004 35.2256 50.7557 35.2256C51.52 35.2256 51.9568 34.9708 52.4026 34.5432L53.1215 35.2529C52.5118 35.9262 51.7111 36.3084 50.6648 36.3084C49.1998 36.3084 47.8441 35.4167 47.8441 33.2693L47.835 33.2602ZM51.9477 32.687C51.8749 31.7953 51.4291 31.3222 50.6102 31.3222C49.9459 31.3222 49.3454 31.6952 49.2089 32.687H51.9386H51.9477Z" fill="#181715"></path>
      <path d="M53.822 35.3804L54.559 34.5524C54.9958 34.9254 55.6509 35.2439 56.397 35.2439C57.1431 35.2439 57.5617 35.0528 57.5617 34.5706C57.5617 34.0883 56.9703 33.9518 56.2605 33.7881C55.2597 33.5606 54.0586 33.2967 54.0586 31.9319C54.0586 30.9037 54.9412 30.2122 56.2332 30.2122C57.3433 30.2122 58.0257 30.5306 58.6354 31.0402L57.9893 31.9228C57.5617 31.5679 56.8611 31.2858 56.3333 31.2858C55.5872 31.2858 55.3415 31.5497 55.3415 31.8773C55.3415 32.3504 55.9239 32.496 56.6245 32.6507C57.6254 32.8691 58.8537 33.1238 58.8537 34.4887C58.8537 35.7261 57.7437 36.2994 56.4061 36.2994C55.3233 36.2994 54.3588 35.9172 53.8311 35.3713L53.822 35.3804Z" fill="#181715"></path>
      <path d="M63.1758 28.0286H64.577L68.435 33.8519H68.4532V28.0286H69.7361V36.1903H68.4805L64.4769 30.2487H64.4587V36.1903H63.1758V28.0286Z" fill="#181715"></path>
      <path d="M71.0918 33.2602C71.0918 31.1038 72.5112 30.2212 73.9489 30.2212C75.3865 30.2212 76.8059 31.1038 76.8059 33.2602C76.8059 35.4167 75.3683 36.2993 73.9489 36.2993C72.5294 36.2993 71.0918 35.3985 71.0918 33.2602ZM75.432 33.2602C75.432 32.1684 74.968 31.3768 73.9398 31.3768C72.9116 31.3768 72.4476 32.0865 72.4476 33.2602C72.4476 34.3703 72.9025 35.171 73.9398 35.171C74.9225 35.171 75.432 34.4613 75.432 33.2602Z" fill="#181715"></path>
      <path d="M77.9888 30.3304H79.3446V31.2858H79.3628C79.7267 30.7035 80.3546 30.2122 81.4646 30.2122H81.5556L81.5101 31.4587C81.4464 31.4496 81.219 31.4405 81.1462 31.4405C80.2727 31.4405 79.7267 31.85 79.3355 32.4778V36.1811H77.9797V30.3304H77.9888Z" fill="#181715"></path>
      <path d="M82.1563 33.2787C82.1563 31.2496 83.1572 30.2214 84.6585 30.2214C85.2864 30.2214 85.9051 30.4762 86.3327 30.9584V28.0286H87.6885V34.7527C87.6885 35.4624 87.734 35.8901 87.8614 36.1903H86.4601C86.3874 36.0265 86.3237 35.699 86.3237 35.3987C85.896 35.8901 85.3319 36.2813 84.4584 36.2813C83.1208 36.2813 82.1472 35.3077 82.1472 33.2878L82.1563 33.2787ZM86.3327 34.4251V32.0776C85.9688 31.6045 85.4411 31.3497 84.9588 31.3497C83.9306 31.3497 83.5121 32.0139 83.5121 33.3151C83.5121 34.6162 84.0398 35.1712 84.9133 35.1712C85.4774 35.1712 86.0143 34.8164 86.3327 34.4342V34.4251Z" fill="#181715"></path>
      <path d="M89.2078 30.3304H90.5636V31.2858H90.5818C90.9457 30.7035 91.5736 30.2122 92.6836 30.2122H92.7746L92.7291 31.4587C92.6654 31.4496 92.438 31.4405 92.3652 31.4405C91.4917 31.4405 90.9457 31.85 90.5545 32.4778V36.1811H89.1987V30.3304H89.2078Z" fill="#181715"></path>
      <path d="M93.7483 28.0286H95.1132V31.1313C95.4862 30.731 96.196 30.2305 97.2514 30.2305C98.3069 30.2305 98.9348 30.8401 98.9348 31.9957V36.1994H97.5699V32.3415C97.5699 31.6954 97.297 31.3952 96.6964 31.3952C96.0959 31.3952 95.6045 31.7045 95.1041 32.1595V36.2085H93.7393V28.0468L93.7483 28.0286Z" fill="#181715"></path>
      <path d="M100.054 33.2602C100.054 31.031 101.628 30.2212 102.847 30.2212C104.158 30.2212 105.413 31.0037 105.413 33.3876V33.7061H101.41C101.464 34.7616 102.119 35.2256 102.975 35.2256C103.739 35.2256 104.176 34.9708 104.613 34.5432L105.331 35.2529C104.722 35.9262 103.921 36.3084 102.875 36.3084C101.41 36.3084 100.054 35.4167 100.054 33.2693V33.2602ZM104.167 32.687C104.094 31.7953 103.648 31.3222 102.829 31.3222C102.165 31.3222 101.564 31.6952 101.428 32.687H104.158H104.167Z" fill="#181715"></path>
      <path d="M106.651 28.1377H108.043V29.3206H106.651V28.1377ZM106.66 30.3305H108.025V36.1812H106.66V30.3305Z" fill="#181715"></path>
      <path d="M109.599 30.3304H110.964V31.122C111.337 30.7216 112.046 30.2212 113.102 30.2212C114.157 30.2212 114.785 30.8308 114.785 31.9864V36.1901H113.42V32.3322C113.42 31.6861 113.147 31.3859 112.547 31.3859C111.946 31.3859 111.455 31.6952 110.954 32.1502V36.1992H109.59V30.3486L109.599 30.3304Z" fill="#181715"></path>
      <path d="M116.086 32.2412H118.807V33.2148H116.086V32.2412Z" fill="#181715"></path>
      <path d="M119.735 28.0286H121.127L122.164 32.2505C122.328 32.8965 122.483 33.5061 122.592 34.1431H122.61C122.719 33.5152 122.865 32.9056 123.029 32.2596L124.011 28.0286H125.331L126.35 32.2869C126.523 32.9784 126.659 33.4697 126.777 34.1522H126.796C126.914 33.4424 127.041 33.0148 127.196 32.3233L128.206 28.0377H129.498L127.351 36.1994H126.15L124.685 29.9484H124.667L123.12 36.1994H121.91L119.735 28.0377V28.0286Z" fill="#181715"></path>
      <path d="M130.135 33.2602C130.135 31.031 131.709 30.2212 132.928 30.2212C134.239 30.2212 135.494 31.0037 135.494 33.3876V33.7061H131.491C131.545 34.7616 132.2 35.2256 133.056 35.2256C133.82 35.2256 134.257 34.9708 134.703 34.5432L135.422 35.2529C134.812 35.9262 134.011 36.3084 132.965 36.3084C131.5 36.3084 130.144 35.4167 130.144 33.2693L130.135 33.2602ZM134.248 32.687C134.175 31.7953 133.729 31.3222 132.91 31.3222C132.246 31.3222 131.645 31.6952 131.509 32.687H134.239H134.248Z" fill="#181715"></path>
      <path d="M136.35 35.3804L137.087 34.5524C137.523 34.9254 138.179 35.2439 138.925 35.2439C139.671 35.2439 140.089 35.0528 140.089 34.5706C140.089 34.0883 139.498 33.9518 138.788 33.7881C137.787 33.5606 136.586 33.2967 136.586 31.9319C136.586 30.9037 137.469 30.2122 138.761 30.2122C139.871 30.2122 140.553 30.5306 141.163 31.0402L140.517 31.9228C140.089 31.5679 139.389 31.2858 138.861 31.2858C138.115 31.2858 137.869 31.5497 137.869 31.8773C137.869 32.3504 138.451 32.496 139.152 32.6507C140.153 32.8691 141.381 33.1238 141.381 34.4887C141.381 35.7261 140.271 36.2994 138.934 36.2994C137.851 36.2994 136.886 35.9172 136.359 35.3713L136.35 35.3804Z" fill="#181715"></path>
      <path d="M142.91 34.6524V31.4132H141.9V30.3304H142.91V28.2922H144.266V30.3304H145.776V31.4132H144.266V34.3157C144.266 34.9436 144.457 35.1983 145.13 35.1983C145.33 35.1983 145.585 35.162 145.712 35.1256V36.1901C145.567 36.2265 145.066 36.2629 144.721 36.2629C143.228 36.2629 142.91 35.7079 142.91 34.6524Z" fill="#181715"></path>
      <path d="M147.396 31.4133H146.377V30.3306H147.396V29.7391C147.396 28.7564 147.805 28.0012 149.288 28.0012C149.543 28.0012 149.998 28.0467 150.089 28.0558V29.1022C149.998 29.084 149.78 29.0567 149.625 29.0567C149.143 29.0567 148.742 29.1932 148.742 29.821V30.3397H150.025V31.4224H148.742V36.1994H147.387V31.4224L147.396 31.4133Z" fill="#181715"></path>
      <path d="M150.853 34.7707C150.853 33.5059 151.936 32.6506 154.666 32.3412V32.1684C154.666 31.586 154.357 31.3313 153.711 31.3313C152.892 31.3313 152.236 31.7316 151.736 32.1229L151.072 31.2767C151.7 30.7034 152.682 30.2212 153.892 30.2212C155.458 30.2212 155.994 30.9673 155.994 32.3412V34.7525C155.994 35.4622 156.04 35.8898 156.158 36.1901H154.793C154.72 35.9444 154.657 35.7716 154.657 35.444C154.065 36.0536 153.365 36.2811 152.491 36.2811C151.545 36.2811 150.835 35.7534 150.835 34.7798L150.853 34.7707ZM154.666 34.5523V33.2602C153.046 33.4786 152.182 33.879 152.182 34.5159C152.182 34.9799 152.5 35.2256 153.001 35.2256C153.692 35.2256 154.238 34.9617 154.666 34.5523Z" fill="#181715"></path>
      <path d="M157.286 28.0286H158.651V36.1903H157.286V28.0286Z" fill="#181715"></path>
      <path d="M159.898 33.2602C159.898 31.031 161.472 30.2212 162.691 30.2212C164.001 30.2212 165.257 31.0037 165.257 33.3876V33.7061H161.253C161.308 34.7616 161.963 35.2256 162.818 35.2256C163.583 35.2256 164.02 34.9708 164.456 34.5432L165.175 35.2529C164.565 35.9262 163.765 36.3084 162.718 36.3084C161.253 36.3084 159.898 35.4167 159.898 33.2693V33.2602ZM164.01 32.687C163.938 31.7953 163.492 31.3222 162.673 31.3222C162.009 31.3222 161.408 31.6952 161.272 32.687H164.001H164.01Z" fill="#181715"></path>
      <path d="M166.449 30.3304H167.814V31.122C168.187 30.7216 168.897 30.2212 169.952 30.2212C171.008 30.2212 171.635 30.8308 171.635 31.9864V36.1901H170.271V32.3322C170.271 31.6861 169.998 31.3859 169.397 31.3859C168.797 31.3859 168.305 31.6952 167.805 32.1502V36.1992H166.44V30.3486L166.449 30.3304Z" fill="#181715"></path>
    </svg>